<?xml version="1.0" standalone="no"?>
<!DOCTYPE svg PUBLIC "-//W3C//DTD SVG 20010904//EN"
 "http://www.w3.org/TR/2001/REC-SVG-20010904/DTD/svg10.dtd">
<svg version="1.0" xmlns="http://www.w3.org/2000/svg"
 width="1592.000000pt" height="1592.000000pt" viewBox="0 0 1592.000000 1592.000000"
 preserveAspectRatio="xMidYMid meet">
<metadata>
Created by potrace 1.14, written by Peter Selinger 2001-2017
</metadata>
<g transform="translate(0.000000,1592.000000) scale(0.100000,-0.100000)"
fill="#000000" stroke="none">
<path d="M9282 14813 c2 -5 21 -45 42 -90 44 -93 24 -83 266 -134 30 -6 65
-15 78 -20 13 -5 34 -9 48 -9 14 0 34 -5 45 -11 11 -5 28 -9 37 -7 38 7 -280
188 -438 248 -19 7 -39 17 -44 22 -12 10 -39 11 -34 1z"/>
<path d="M4775 14630 c-11 -4 -47 -14 -80 -21 -33 -7 -61 -13 -63 -15 -5 -3
49 -178 58 -188 5 -5 42 -15 82 -22 40 -8 88 -17 107 -21 27 -5 33 -3 29 8 -3
8 -24 71 -48 142 -23 70 -48 127 -54 126 -6 0 -20 -4 -31 -9z"/>
<path d="M5334 14348 c-126 -186 -130 -193 -118 -186 35 19 183 88 189 88 4 0
48 20 99 43 50 24 110 52 133 62 l42 19 -32 19 c-33 21 -71 42 -134 78 -21 11
-42 25 -47 30 -6 5 -13 9 -16 9 -4 0 -56 -73 -116 -162z"/>
<path d="M10215 14489 c-27 -10 -57 -19 -65 -19 -8 0 -21 -4 -29 -9 -12 -8 -9
-19 19 -64 32 -53 35 -55 94 -66 34 -7 77 -16 95 -21 19 -5 37 -7 39 -5 3 2
-8 49 -24 105 -33 114 -35 115 -129 79z"/>
<path d="M11200 14480 c-14 -4 -45 -9 -70 -10 -25 -1 -53 -5 -63 -9 -17 -6
-137 -139 -137 -151 0 -5 63 0 268 22 86 9 102 14 98 27 -3 9 -10 42 -17 74
-13 61 -21 66 -79 47z"/>
<path d="M12225 14446 c-22 -7 -59 -19 -83 -26 -24 -8 -41 -18 -39 -24 3 -6
21 -52 42 -103 l37 -92 56 -6 c31 -3 77 -10 101 -16 24 -5 45 -8 48 -6 2 3
-10 42 -28 88 -17 46 -41 110 -53 141 -11 32 -25 58 -31 57 -5 0 -28 -6 -50
-13z"/>
<path d="M9255 14401 c-98 -53 -90 -37 -63 -126 l23 -78 48 48 48 47 -3 68 -3
68 -50 -27z"/>
<path d="M11539 14222 c-88 -159 -92 -150 57 -142 l96 5 44 103 c49 116 48
112 34 112 -10 0 -87 32 -122 51 -10 5 -21 9 -25 9 -5 -1 -42 -62 -84 -138z"/>
<path d="M5995 14189 c-22 -5 -59 -12 -83 -16 -23 -3 -45 -10 -49 -16 -7 -12
-32 -140 -32 -169 -1 -11 6 -18 17 -18 10 0 22 -4 28 -9 5 -5 23 -12 40 -15
l30 -7 62 131 c66 141 66 137 -13 119z"/>
<path d="M8719 14186 c-4 -4 -73 -11 -354 -36 -134 -12 -443 -40 -528 -47 -37
-3 -70 -10 -73 -14 -3 -5 181 -9 413 -9 l417 0 128 -132 127 -133 1 188 0 187
-63 0 c-35 0 -66 -2 -68 -4z"/>
<path d="M4905 13985 c35 -81 66 -149 67 -151 2 -2 58 -17 123 -34 167 -44
189 -49 192 -46 8 8 -170 264 -190 273 -12 6 -38 18 -57 26 -19 8 -61 26 -92
41 -118 53 -116 57 -43 -109z"/>
<path d="M10185 14091 c-9 -15 8 -21 92 -32 43 -6 105 -14 138 -19 161 -25
207 -31 290 -41 125 -14 126 -14 165 -51 19 -18 61 -55 93 -82 l58 -49 -3 139
-3 139 -412 3 c-250 1 -414 -1 -418 -7z"/>
<path d="M8940 13903 l0 -126 233 7 c127 4 536 11 907 16 371 5 686 10 700 10
22 1 21 3 -15 22 -31 17 -73 25 -185 34 -142 13 -249 23 -440 44 -52 6 -137
15 -187 20 -51 6 -135 14 -185 20 -51 5 -136 14 -188 20 -52 5 -167 17 -255
25 -88 8 -203 19 -255 25 -52 5 -103 10 -112 10 -16 0 -18 -13 -18 -127z"/>
<path d="M6210 13876 c0 -105 3 -146 12 -146 6 0 44 16 85 35 79 38 215 101
248 115 11 5 56 26 100 46 44 20 91 40 104 45 13 5 21 12 18 15 -3 4 -82 10
-174 15 -92 4 -219 11 -280 15 l-113 7 0 -147z"/>
<path d="M6927 13978 c-13 -21 -34 -61 -154 -288 -22 -41 -68 -128 -102 -193
l-63 -118 17 -99 18 -99 36 -3 36 -3 -3 -449 -4 -450 24 -18 c30 -24 282 -201
365 -256 88 -58 111 -80 91 -87 -17 -7 -173 -49 -270 -73 -38 -9 -68 -20 -68
-24 0 -5 22 -8 49 -8 28 0 52 -4 55 -8 3 -5 -24 -35 -59 -66 l-65 -57 -2 -331
-3 -330 -39 93 c-22 52 -48 114 -59 139 -11 25 -32 74 -47 110 -15 36 -84 198
-152 360 -69 162 -128 303 -131 313 -5 13 4 35 25 65 17 26 31 55 30 64 0 9
-15 81 -32 160 -66 303 -201 914 -207 937 -5 22 -127 111 -151 111 -6 0 -12 4
-14 8 -1 5 -25 23 -52 41 -54 38 -24 36 -296 12 -58 -6 -159 -15 -225 -21 -66
-6 -169 -15 -230 -20 -149 -11 -163 -16 -180 -56 -9 -23 -21 -34 -34 -34 -18
0 -103 -19 -221 -50 -53 -14 -200 -47 -240 -54 -79 -15 -120 -29 -120 -43 0
-11 136 -912 176 -1165 6 -37 7 -38 46 -38 28 0 39 -4 35 -12 -23 -60 -242
-518 -247 -518 -3 0 -43 116 -88 258 -45 141 -125 390 -177 552 -52 162 -100
313 -107 335 -10 36 -26 52 -145 140 -74 55 -140 105 -146 110 -7 6 -39 30
-72 55 -33 25 -64 48 -70 53 -5 4 -32 24 -60 45 -27 20 -58 44 -68 53 -44 40
-64 44 -120 25 -29 -10 -65 -24 -82 -31 -16 -7 -66 -26 -110 -43 -44 -16 -145
-54 -225 -85 -80 -30 -179 -67 -220 -82 -41 -15 -86 -31 -100 -37 -37 -16 -55
-23 -165 -63 -55 -21 -109 -41 -120 -46 -11 -4 -30 -10 -41 -14 -19 -5 -24
-19 -38 -110 -9 -57 -16 -115 -16 -129 0 -14 -5 -26 -10 -26 -6 0 -70 29 -143
65 l-133 65 -139 -51 c-77 -28 -149 -55 -160 -59 -38 -15 -180 -68 -255 -95
-72 -26 -92 -34 -142 -54 -13 -5 -39 -14 -58 -21 -37 -13 -65 -23 -102 -40
-13 -5 -52 -19 -87 -30 -51 -17 -189 -69 -198 -75 -2 -1 104 -261 149 -365 12
-27 30 -42 82 -69 57 -29 86 -49 74 -52 -2 0 -75 -4 -163 -9 -389 -21 -386
-21 -379 -43 3 -10 42 -92 86 -181 44 -88 104 -210 133 -271 29 -60 102 -211
163 -335 280 -574 385 -788 466 -955 99 -204 77 -183 256 -240 63 -21 124 -41
135 -46 11 -4 39 -13 62 -20 l41 -12 47 -126 c42 -112 97 -261 236 -646 48
-132 55 -144 105 -171 92 -50 240 -136 249 -145 5 -5 18 -9 28 -9 17 0 162 45
222 69 11 4 101 34 200 67 99 32 187 62 195 65 8 4 58 21 110 38 111 35 296
98 325 111 11 5 36 12 55 16 19 3 40 10 45 14 32 23 61 18 123 -20 35 -22 67
-40 73 -40 15 0 10 -27 -7 -34 -9 -3 -52 -6 -97 -6 -53 0 -100 -7 -136 -19
-31 -10 -83 -26 -116 -36 -33 -9 -71 -20 -85 -25 -54 -18 -348 -110 -395 -123
-27 -8 -122 -38 -210 -66 -88 -27 -203 -63 -255 -80 l-95 -29 -70 38 c-38 21
-114 63 -167 94 -53 31 -101 56 -105 56 -5 0 -25 -35 -44 -78 l-36 -78 26 -55
c14 -30 48 -103 75 -164 27 -60 62 -138 77 -172 16 -34 29 -66 29 -70 0 -4 4
-14 8 -21 7 -10 22 -5 68 19 32 18 104 55 159 84 55 29 159 83 230 120 142 74
269 140 500 260 155 81 313 163 449 234 44 23 81 39 83 37 3 -2 5 -26 6 -52
l2 -48 -107 -86 c-58 -47 -119 -94 -134 -105 -15 -11 -32 -25 -38 -31 -6 -5
-51 -41 -101 -79 -49 -37 -92 -71 -95 -74 -3 -4 -30 -24 -60 -46 -30 -22 -57
-42 -60 -45 -3 -3 -70 -58 -150 -120 -80 -63 -146 -118 -148 -122 -2 -5 -10
-8 -17 -8 -7 0 -15 -4 -17 -9 -1 -4 -43 -39 -93 -76 -49 -38 -95 -74 -101 -79
-6 -6 -23 -20 -38 -31 -16 -11 -33 -24 -40 -30 -6 -5 -27 -22 -48 -37 -20 -15
-42 -33 -50 -41 -7 -7 -38 -30 -68 -52 -30 -22 -61 -46 -69 -53 -8 -8 -39 -32
-70 -55 -31 -23 -65 -50 -76 -60 -11 -10 -39 -33 -63 -50 -61 -45 -156 -120
-162 -127 -3 -4 -23 -20 -45 -36 -22 -16 -58 -43 -80 -61 -60 -48 -393 -308
-449 -351 -26 -20 -64 -52 -85 -69 -20 -18 -39 -33 -43 -33 -4 0 -13 -6 -20
-12 -7 -7 -29 -25 -50 -40 -20 -15 -42 -33 -50 -40 -7 -7 -31 -26 -53 -43 -22
-16 -47 -35 -55 -42 -8 -7 -32 -26 -53 -42 l-38 -30 38 5 c21 3 58 9 83 14 25
5 74 14 110 20 36 6 85 15 110 20 25 5 74 14 110 20 36 6 88 15 115 21 28 5
82 14 120 20 39 6 90 14 115 19 25 5 72 13 105 19 33 5 85 15 115 21 30 5 80
14 110 20 30 5 82 14 115 20 33 6 101 18 150 26 142 25 186 32 248 43 31 6 82
15 112 21 30 6 81 15 113 21 146 26 345 58 349 55 1 -1 -32 -37 -73 -81 -42
-44 -89 -96 -106 -115 -17 -19 -84 -91 -148 -160 -65 -69 -142 -152 -171 -184
-79 -86 -316 -341 -347 -372 -29 -30 -32 -30 218 -4 252 26 295 31 385 40 413
43 435 45 435 31 0 -6 -3 -11 -7 -11 -5 0 -24 -15 -44 -33 -20 -17 -47 -41
-60 -52 -74 -62 -235 -200 -239 -205 -3 -3 -66 -57 -140 -120 -74 -63 -137
-117 -140 -120 -3 -3 -52 -46 -110 -95 -58 -49 -110 -94 -116 -100 -10 -9 -64
-55 -136 -117 -15 -13 -36 -30 -47 -39 -11 -8 -37 -31 -58 -50 -21 -19 -50
-44 -65 -55 -44 -34 -159 -137 -156 -140 2 -1 22 2 46 7 48 10 99 23 302 73
58 15 121 31 140 36 19 5 163 41 320 79 157 38 317 76 355 86 102 24 150 34
153 30 2 -2 -36 -57 -85 -123 -48 -66 -137 -188 -198 -271 -60 -83 -151 -206
-201 -273 -50 -68 -106 -145 -125 -173 -19 -27 -80 -111 -135 -185 -55 -74
-114 -155 -132 -180 -17 -25 -52 -73 -77 -107 -24 -35 -43 -63 -40 -63 2 0 16
5 32 11 45 18 239 87 348 124 55 18 152 52 215 75 63 23 131 46 150 52 19 5
44 13 55 18 11 5 40 16 65 24 25 8 83 29 130 47 47 17 103 37 125 44 22 6 47
14 55 18 8 3 35 13 60 21 25 8 83 29 130 46 47 17 139 49 205 71 66 22 129 44
140 48 79 33 77 33 70 9 -4 -13 -41 -129 -82 -258 -41 -129 -86 -271 -100
-315 -14 -44 -28 -83 -30 -88 -2 -4 13 2 34 14 21 12 76 42 123 67 47 24 123
65 170 90 47 24 117 61 155 82 39 20 111 58 160 85 158 85 245 129 249 124 4
-4 -32 -220 -103 -609 -21 -118 -38 -216 -37 -217 1 -2 11 4 22 12 16 13 177
138 209 163 6 4 30 23 55 42 25 19 47 38 50 41 3 3 30 24 61 46 31 23 62 47
70 55 8 7 50 40 94 73 44 33 89 68 100 79 11 10 36 29 55 41 19 13 47 34 61
47 15 13 41 34 60 48 62 47 224 174 229 180 3 3 21 17 40 30 19 13 37 27 40
31 3 3 46 37 96 75 50 38 106 81 125 97 126 101 213 167 216 163 3 -2 -17 -82
-43 -178 -25 -95 -50 -186 -54 -203 -5 -16 -36 -131 -70 -255 -34 -124 -71
-259 -81 -300 -11 -41 -23 -78 -26 -84 -8 -13 10 -1 422 269 61 39 125 80 143
90 17 11 32 23 32 27 0 4 6 8 14 8 7 0 19 7 26 15 7 8 16 15 20 15 4 0 10 -55
14 -122 11 -191 50 -412 107 -597 10 -35 19 -67 19 -72 0 -5 -964 -9 -2325 -9
l-2325 0 0 -715 0 -715 5725 0 5725 0 5 23 c3 12 4 333 3 712 l-3 690 -2247 3
c-2156 2 -2248 3 -2248 20 0 10 4 22 9 28 13 14 96 230 125 324 35 117 63 255
78 383 7 59 14 107 18 107 3 0 25 -19 50 -43 25 -23 77 -69 115 -102 39 -33
75 -64 81 -70 34 -31 151 -134 177 -155 17 -14 49 -41 71 -62 23 -20 59 -52
81 -72 l40 -35 3 525 c1 288 6 524 10 524 4 0 30 -18 58 -39 28 -21 76 -55
105 -75 30 -19 115 -79 189 -131 74 -53 160 -112 190 -132 30 -20 57 -39 60
-43 5 -7 248 -176 343 -239 28 -18 56 -39 63 -45 7 -7 36 -28 66 -47 29 -18
55 -36 58 -39 3 -4 34 -26 70 -50 36 -24 67 -46 70 -50 3 -3 29 -21 58 -39 30
-19 59 -40 66 -47 7 -7 39 -29 72 -50 32 -20 61 -40 64 -44 3 -3 21 -17 40
-30 19 -13 38 -29 42 -35 4 -5 8 -6 8 -1 0 5 -48 247 -106 538 -58 291 -104
532 -101 534 3 3 23 -6 46 -20 22 -14 43 -26 46 -26 3 0 46 -27 96 -60 49 -34
97 -64 107 -67 9 -4 60 -35 112 -69 132 -86 287 -183 338 -210 23 -13 76 -46
117 -74 41 -28 83 -54 93 -57 9 -4 22 -11 27 -15 21 -17 170 -110 184 -116 9
-3 54 -31 101 -62 47 -31 105 -68 130 -82 25 -14 84 -50 132 -81 47 -32 89
-57 93 -57 3 0 33 -18 66 -40 32 -23 59 -39 59 -36 0 2 -56 121 -124 263 -113
237 -146 306 -241 508 -18 39 -60 126 -93 195 -32 69 -76 161 -96 205 -21 44
-42 88 -47 98 -6 11 -8 22 -4 25 6 6 59 -18 105 -49 14 -9 61 -35 105 -59 44
-24 109 -60 145 -80 36 -21 92 -52 125 -70 63 -35 99 -55 163 -91 20 -12 64
-36 97 -54 33 -17 77 -41 98 -53 73 -43 113 -65 167 -94 30 -17 84 -47 120
-68 36 -20 90 -51 120 -67 30 -17 71 -39 90 -50 19 -11 64 -36 100 -55 63 -34
101 -56 178 -100 20 -12 51 -28 67 -36 17 -8 42 -24 58 -34 15 -11 27 -15 27
-9 0 5 -5 13 -11 17 -6 3 -31 36 -55 73 -24 36 -61 91 -83 121 -22 30 -69 98
-106 150 -36 52 -86 122 -110 155 -24 33 -64 89 -89 125 -24 36 -72 103 -105
150 -34 47 -77 108 -95 135 -19 28 -69 97 -110 155 -41 58 -85 120 -98 138
-13 18 -37 52 -54 75 -17 23 -57 80 -89 127 -32 47 -78 112 -102 145 -23 33
-63 89 -88 125 -26 36 -63 88 -83 116 -20 29 -71 99 -112 158 -41 58 -98 139
-127 178 -29 40 -49 74 -44 76 7 2 64 -26 376 -188 293 -152 395 -205 540
-280 83 -43 209 -108 280 -145 438 -228 626 -325 632 -325 3 0 -20 26 -50 57
-100 106 -141 150 -242 259 -55 60 -137 147 -181 194 -45 47 -96 101 -114 120
-18 19 -82 89 -143 154 -62 65 -120 128 -129 138 -14 17 -194 208 -293 312
-16 18 -75 81 -130 141 -55 60 -118 127 -140 150 -32 34 -237 253 -280 299 -5
6 -17 20 -25 30 -14 18 -13 19 5 12 11 -4 43 -12 70 -18 48 -10 97 -20 180
-39 22 -5 74 -16 115 -24 104 -21 230 -48 340 -75 62 -15 222 -50 320 -70 93
-19 198 -42 370 -81 47 -10 110 -24 140 -29 30 -6 74 -15 98 -20 23 -6 61 -14
85 -19 23 -5 62 -14 87 -20 25 -5 59 -13 75 -16 l30 -7 -30 27 c-16 15 -41 34
-55 43 -14 9 -36 27 -50 39 -56 49 -70 60 -95 79 -15 10 -32 24 -39 29 -12 11
-115 96 -131 108 -5 4 -20 15 -31 25 -12 9 -36 28 -54 42 -18 14 -38 30 -44
35 -6 6 -34 28 -61 50 -28 22 -61 50 -75 62 -43 37 -67 57 -95 77 -14 11 -35
27 -45 35 -24 21 -41 35 -130 105 -41 33 -77 62 -80 66 -3 3 -39 32 -80 65
-41 32 -77 61 -80 65 -3 3 -39 32 -80 65 -41 32 -77 61 -80 65 -3 3 -39 32
-80 65 -41 32 -77 61 -80 65 -3 3 -23 18 -45 35 -22 16 -42 32 -45 35 -3 3
-39 33 -80 65 -41 33 -77 63 -80 66 -3 3 -41 35 -86 70 -201 160 -279 223
-284 229 -3 3 -39 33 -80 65 -41 33 -80 64 -86 70 -6 5 -23 19 -38 30 -29 21
-54 42 -96 78 -14 13 -69 57 -122 100 -54 43 -98 81 -98 86 0 4 28 13 63 18
34 6 78 16 97 21 19 6 67 19 105 28 39 10 72 19 73 20 6 4 -109 278 -122 291
-6 7 -72 32 -146 57 -74 25 -199 67 -277 94 -161 56 -150 61 -129 -55 l13 -71
-36 -20 c-20 -11 -71 -38 -113 -60 -73 -37 -79 -39 -130 -31 -29 5 -69 13 -88
19 -55 15 -237 57 -350 81 -30 6 -66 15 -80 20 -14 4 -43 11 -65 15 -22 3 -65
13 -95 21 -30 8 -75 18 -100 23 -25 5 -63 13 -85 19 -71 18 -165 39 -310 70
-55 12 -116 25 -135 31 -19 5 -57 14 -85 20 -27 6 -66 15 -85 20 -42 11 -207
49 -234 55 -11 2 -36 -6 -55 -18 -38 -23 -52 -32 -142 -84 l-55 -33 -73 -162
c-41 -90 -84 -185 -96 -213 -12 -27 -52 -117 -89 -200 l-66 -150 -29 -205
c-17 -113 -39 -270 -51 -350 -29 -202 -25 -190 -64 -190 l-34 0 -4 98 c-3 89
-6 103 -33 147 -37 60 -117 116 -188 133 -29 6 -87 12 -128 12 l-75 0 -22 39
c-19 34 -75 96 -114 126 -45 36 -116 59 -185 59 -64 0 -80 -4 -148 -39 l-76
-39 -47 46 c-95 91 -170 123 -285 122 -42 0 -90 -6 -105 -13 -78 -37 -95 -47
-130 -77 l-39 -33 -29 20 c-16 11 -54 32 -84 47 -49 24 -66 27 -155 26 -117 0
-163 -17 -247 -93 -83 -74 -221 -305 -249 -414 -11 -47 -8 -133 7 -170 6 -16
2 -18 -32 -15 l-38 3 -18 105 c-10 58 -38 224 -62 370 -35 213 -49 278 -73
330 -17 36 -47 103 -68 150 -20 47 -50 112 -65 145 -14 33 -60 133 -100 223
-40 89 -77 162 -82 162 -11 0 -68 25 -195 86 l-92 44 -58 -16 c-32 -9 -71 -20
-88 -24 -16 -5 -66 -18 -110 -30 -44 -12 -96 -26 -115 -31 -19 -5 -64 -16
-100 -24 -36 -8 -99 -24 -140 -36 -41 -12 -91 -25 -110 -29 -19 -5 -71 -18
-115 -30 -44 -12 -105 -28 -135 -35 -30 -7 -89 -22 -131 -33 -42 -11 -122 -21
-179 -23 l-104 -4 3 60 c1 33 11 93 22 133 11 41 18 79 16 87 -3 7 -25 22 -49
34 -24 12 -61 32 -83 45 l-40 23 -40 -22 c-22 -12 -74 -40 -115 -62 -41 -22
-100 -54 -132 -72 -31 -17 -67 -31 -80 -31 -25 0 -158 26 -164 33 -2 2 34 8
80 15 71 9 94 17 143 49 32 21 60 41 61 46 2 4 10 7 18 7 8 0 14 3 14 8 0 4
18 18 40 32 22 14 40 28 40 33 0 4 -13 16 -30 25 -37 21 -39 36 -2 29 95 -20
183 -38 222 -47 142 -34 135 -34 255 0 22 6 65 17 95 24 50 12 156 41 250 68
19 5 50 12 68 15 17 3 32 8 32 12 0 4 -36 45 -79 91 -44 47 -77 88 -75 92 3 5
23 8 45 8 29 0 56 -10 95 -35 30 -19 56 -35 58 -35 1 0 40 -22 85 -49 94 -56
87 -56 301 -1 19 5 94 23 165 41 72 17 131 33 133 34 1 1 -22 45 -52 97 -32
55 -53 103 -51 114 3 10 28 127 55 259 28 132 54 243 58 247 4 4 12 4 18 0 8
-5 6 -78 -4 -258 l-16 -250 55 -93 c51 -88 55 -92 84 -88 28 4 160 38 345 89
41 11 90 22 108 25 17 3 32 8 32 11 0 3 -28 31 -62 63 -52 49 -69 59 -110 64
-26 4 -45 11 -42 16 7 12 142 12 157 -1 7 -5 43 -35 80 -66 l68 -57 57 12 c31
7 73 16 92 21 43 11 108 25 180 41 30 6 60 13 67 15 7 2 15 13 17 26 61 274
105 443 114 441 24 -5 182 -23 299 -34 123 -12 285 -4 488 21 218 28 215 28
215 6 0 -12 -7 -46 -15 -76 -8 -30 -13 -55 -11 -57 1 -2 16 1 32 6 16 5 54 14
84 20 30 7 71 16 90 21 29 7 99 22 218 46 25 5 25 1 12 -66 -9 -51 -6 -55 55
-70 22 -6 90 -26 151 -46 109 -35 113 -36 147 -19 19 9 43 24 54 34 11 10 29
22 40 25 52 17 49 29 -39 163 -47 71 -90 138 -96 150 -10 17 -3 113 35 465
l47 443 -37 220 c-21 121 -64 379 -97 573 l-60 353 48 62 c26 34 52 67 59 74
6 7 20 28 32 46 l21 34 -80 119 -80 119 0 397 0 398 -37 32 c-20 18 -60 53
-87 78 -68 60 -64 57 -141 125 -38 33 -75 68 -84 78 -14 16 -64 17 -763 17
l-748 0 -13 -22z m1265 -302 c90 -25 111 -33 160 -59 108 -58 176 -125 232
-233 l31 -59 0 -350 0 -350 -357 -2 c-234 -2 -359 1 -363 8 -4 5 -17 126 -30
269 -15 159 -30 271 -39 292 -19 42 -40 68 -55 68 -6 0 -11 5 -11 10 0 12
-129 13 -148 2 -10 -7 -11 -34 -2 -138 6 -71 15 -196 21 -279 24 -369 18 -330
53 -344 17 -7 40 -17 51 -21 11 -5 43 -16 70 -25 28 -9 64 -22 80 -29 17 -7
68 -25 115 -40 47 -15 93 -32 102 -37 10 -5 26 -9 37 -9 11 0 21 -3 23 -8 4
-9 130 -52 154 -52 11 0 32 -7 48 -15 15 -8 35 -15 42 -15 8 0 14 -4 14 -10 0
-5 6 -10 13 -10 7 0 23 -9 35 -20 12 -11 24 -20 27 -20 10 0 76 -64 108 -103
25 -32 28 -41 16 -49 -11 -8 -10 -9 3 -4 14 4 24 -7 43 -45 29 -57 40 -131 50
-343 l8 -149 -29 8 c-16 4 -54 11 -84 15 -60 9 -163 26 -250 41 -30 6 -82 14
-115 19 -55 8 -126 20 -212 36 -21 4 -33 2 -33 -5 0 -6 14 -11 32 -11 17 0 45
-4 62 -9 17 -5 76 -19 131 -31 55 -12 116 -26 135 -31 19 -4 73 -16 120 -24
47 -9 101 -20 120 -25 19 -4 54 -11 77 -15 45 -7 50 -15 49 -78 -1 -36 -4 -40
-41 -53 -22 -7 -51 -14 -64 -14 -14 0 -38 -4 -55 -9 -40 -12 -221 -47 -371
-70 -38 -6 -103 -18 -144 -27 -40 -8 -76 -12 -79 -9 -3 3 -9 65 -13 138 -4 72
-11 165 -14 205 -6 67 -5 72 13 72 18 0 18 4 10 53 -22 135 -44 187 -79 187
-11 0 -19 5 -19 10 0 6 -9 10 -21 10 -11 0 -17 4 -14 10 3 6 -1 7 -10 4 -9 -4
-26 -2 -38 4 -69 32 -119 52 -132 52 -8 0 -15 4 -15 9 0 5 -10 11 -22 14 -26
6 -182 62 -213 76 -47 22 -181 71 -192 71 -7 0 -13 4 -13 9 0 5 -10 13 -22 17
-72 22 -201 147 -246 237 -34 69 -48 140 -57 297 -3 58 -13 195 -20 305 -19
262 -19 279 0 271 8 -3 15 -1 15 5 0 6 -13 16 -30 22 -29 11 -39 30 -21 42 5
3 12 18 16 34 6 27 63 95 110 131 58 44 173 71 365 84 155 11 321 34 460 66
19 4 59 13 89 19 30 6 57 13 59 16 12 11 224 4 274 -9z m-2098 -1046 c143
-430 146 -440 132 -474 -14 -34 -11 -44 139 -493 128 -382 156 -458 172 -458
10 0 21 -5 25 -11 10 -16 159 -466 156 -470 -2 -1 -35 47 -73 108 -39 60 -101
157 -138 215 -38 58 -71 112 -74 119 -6 16 -47 29 -62 20 -5 -3 15 -45 44 -94
30 -48 66 -109 81 -137 14 -27 46 -82 70 -121 24 -39 44 -76 44 -82 0 -6 7
-17 15 -25 30 -30 87 -161 151 -344 36 -104 73 -206 83 -228 10 -22 21 -53 25
-69 l7 -29 -73 6 c-40 3 -80 2 -88 -3 -11 -7 -11 -10 -2 -10 10 0 10 -5 1 -21
-12 -23 -22 -23 -274 -4 -33 3 -94 7 -135 10 -41 3 -84 7 -94 8 -20 2 -34 40
-149 416 l-32 104 -152 1 c-131 1 -153 -1 -153 -14 0 -20 28 -372 35 -432 l5
-46 -78 4 c-42 3 -93 9 -112 14 -19 5 -68 11 -108 13 -40 3 -78 9 -84 15 -8 8
0 36 30 101 23 49 42 92 42 94 0 3 20 48 45 100 25 53 45 98 45 101 0 3 25 58
56 123 57 120 136 294 147 325 5 14 22 18 94 20 72 2 87 6 85 18 -2 8 -6 39
-9 68 l-6 52 127 0 c94 0 126 -3 126 -12 0 -9 4 -8 10 2 9 13 10 13 10 0 1
-31 15 9 15 42 l0 33 -162 3 -163 2 0 60 c0 43 6 71 24 104 13 24 31 64 39 88
9 24 30 77 47 118 25 61 29 78 20 95 -9 17 -7 28 11 59 24 41 21 53 -9 37 -16
-8 -23 -5 -41 19 -12 17 -29 30 -39 30 -11 0 -13 -3 -6 -8 25 -16 27 -73 4
-126 -13 -28 -26 -60 -30 -71 -4 -11 -29 -75 -56 -143 l-48 -123 -12 43 c-6
24 -26 97 -43 163 -49 182 -53 197 -66 240 -7 22 -25 87 -40 145 -15 58 -35
111 -44 118 -9 7 -39 84 -68 170 l-52 157 0 -118 c-1 -85 3 -124 13 -140 9
-14 24 -116 40 -277 15 -140 35 -339 46 -442 11 -103 20 -196 20 -206 0 -16
-15 -20 -152 -31 -84 -6 -203 -16 -264 -21 -60 -6 -136 -10 -167 -10 l-57 0 0
87 c0 48 -4 171 -10 273 -5 102 -14 281 -20 399 -10 197 -18 243 -43 262 -4 3
-13 165 -19 358 -8 268 -8 355 1 360 6 4 48 13 94 20 157 23 212 33 251 43 23
6 42 6 48 0 7 -7 105 -166 149 -242 8 -14 16 -27 19 -30 3 -3 11 -18 18 -34 7
-17 26 -46 43 -67 16 -20 29 -40 29 -44 0 -4 38 -72 85 -150 47 -79 88 -150
91 -159 4 -10 22 -16 57 -18 l52 -3 0 -44 0 -43 160 0 c88 1 163 1 168 2 4 0
7 7 7 15 0 13 -22 15 -137 15 -76 0 -143 4 -149 8 -6 4 -17 25 -25 47 -7 22
-22 52 -32 67 -10 16 -16 31 -13 36 2 4 -8 45 -24 90 -16 45 -27 90 -24 99 4
12 3 14 -3 6 -6 -9 -13 -2 -22 25 -7 20 -18 53 -25 72 -8 19 -23 60 -34 90
-11 30 -36 97 -56 148 -21 51 -34 97 -31 102 3 6 2 10 -2 10 -9 0 -47 99 -40
106 5 5 324 40 393 43 l32 1 146 -440z m-596 328 c11 -24 32 -74 47 -113 38
-97 103 -252 125 -300 10 -22 33 -76 51 -120 17 -44 38 -95 45 -112 22 -51 0
-39 -26 15 -13 26 -28 52 -33 57 -7 9 -46 68 -132 205 -12 19 -43 67 -69 107
-25 40 -46 77 -46 82 0 5 -4 11 -8 13 -9 3 -112 170 -112 181 0 4 15 7 33 8
17 0 41 4 52 9 39 17 53 11 73 -32z m-1940 -615 c64 -155 133 -317 157 -368 7
-16 16 -42 20 -56 l6 -26 -93 -6 c-51 -4 -138 -11 -193 -17 -55 -6 -149 -14
-210 -20 -60 -5 -119 -12 -130 -14 -11 -3 -56 -8 -100 -10 -76 -4 -161 -12
-232 -21 -37 -4 -34 -13 -62 185 -12 80 -23 159 -26 175 -5 28 -2 32 32 44 33
11 84 29 158 56 109 41 153 57 170 61 11 4 38 15 61 25 22 11 47 19 55 19 8 0
19 4 24 8 6 4 35 16 65 26 30 10 66 22 80 28 14 6 34 14 45 18 11 4 31 12 45
18 27 11 51 20 61 21 3 1 33 -65 67 -146z m-1333 -373 c-3 -5 -3 -10 2 -10 4
0 24 -24 43 -53 19 -28 38 -53 43 -55 4 -2 7 -8 7 -14 0 -5 20 -35 45 -67 25
-31 45 -60 45 -63 0 -7 -55 -17 -160 -29 -47 -6 -116 -14 -155 -19 -38 -5
-135 -15 -215 -24 -80 -8 -194 -22 -254 -30 -150 -22 -147 -22 -178 26 -27 43
-24 68 8 68 8 0 22 4 32 10 9 5 62 26 117 46 55 20 119 44 142 55 24 10 47 19
53 19 6 0 18 4 28 9 9 6 51 22 92 37 41 14 97 35 124 45 27 11 55 19 62 19 8
0 14 4 14 8 0 9 55 29 88 31 13 0 21 -3 17 -9z m1561 -157 c3 -10 14 -38 24
-63 10 -25 30 -74 43 -110 48 -127 238 -606 262 -661 14 -31 25 -63 25 -71 0
-8 3 -18 6 -21 4 -4 17 -33 30 -64 27 -65 30 -130 13 -283 -10 -94 -13 -134
-44 -460 -28 -303 -36 -394 -45 -485 -5 -49 -12 -121 -15 -160 l-7 -69 -15 34
c-8 19 -40 96 -70 170 -30 74 -58 140 -62 145 -4 6 -18 39 -31 75 -13 36 -31
83 -41 105 -9 22 -29 67 -42 100 -14 33 -48 114 -76 180 -27 66 -63 154 -79
195 -17 41 -37 89 -46 105 -9 17 -16 37 -16 45 0 9 -4 20 -8 25 -14 16 -57
129 -54 143 2 6 -2 12 -7 12 -5 0 -13 10 -16 23 -4 12 -17 45 -30 72 -12 28
-39 94 -60 148 -31 78 -43 99 -62 103 -13 4 -27 4 -30 0 -4 -3 22 -118 56
-254 35 -136 67 -263 71 -282 7 -32 51 -203 130 -505 64 -243 150 -590 150
-605 0 -11 20 -19 73 -29 39 -7 75 -15 78 -17 3 -2 4 -17 1 -33 -3 -24 -11
-32 -41 -41 -31 -10 -97 -34 -166 -60 -11 -5 -36 -13 -55 -20 -19 -7 -44 -16
-55 -20 -42 -17 -54 -18 -59 -7 -3 7 -16 28 -28 48 -13 20 -52 85 -87 143 -48
79 -70 106 -85 106 -12 1 -43 7 -70 14 -46 12 -52 17 -102 97 -30 46 -57 90
-60 98 -4 8 -47 76 -96 153 -48 76 -88 142 -88 147 0 5 -3 11 -7 13 -5 2 -15
15 -23 30 -8 15 -60 97 -115 184 -55 87 -109 172 -120 190 -32 51 -115 187
-128 209 -7 11 -14 22 -17 25 -3 3 -13 19 -22 35 -10 19 -26 31 -43 33 -24 3
-25 1 -19 -25 4 -15 18 -53 32 -83 66 -147 162 -374 162 -382 0 -5 -5 -6 -12
-2 -7 4 -8 3 -4 -5 4 -6 11 -9 15 -7 10 7 14 -2 116 -239 116 -270 147 -335
160 -335 21 0 41 -33 75 -120 17 -47 43 -109 56 -138 13 -29 24 -56 24 -60 0
-4 20 -57 45 -117 25 -61 45 -114 45 -120 0 -5 -46 -28 -103 -49 -56 -22 -113
-45 -127 -52 -46 -23 -115 -52 -161 -67 -25 -8 -75 -29 -112 -46 -37 -17 -75
-31 -85 -31 -13 0 -27 26 -54 98 -21 53 -43 111 -49 127 -7 17 -20 50 -29 75
-9 25 -42 106 -72 180 -30 74 -83 207 -118 295 -43 110 -71 166 -88 179 -39
31 -72 66 -72 77 0 6 -30 79 -66 162 -36 84 -76 179 -90 212 -14 33 -29 69
-34 80 -44 98 -180 415 -180 419 0 6 -12 34 -66 153 -13 28 -24 54 -24 57 0 2
-13 33 -29 68 -16 35 -46 104 -66 153 -20 50 -42 104 -50 120 -37 82 -83 192
-89 211 -6 19 -1 22 76 32 46 6 128 16 183 22 55 6 118 13 140 16 22 3 81 10
130 15 50 5 128 14 175 19 158 19 255 28 263 23 17 -10 97 -144 92 -153 -3 -6
0 -7 8 -4 7 2 19 -5 26 -18 20 -39 34 -60 106 -166 39 -57 94 -140 123 -185
29 -45 58 -89 65 -97 6 -8 56 -81 109 -162 54 -82 100 -148 102 -148 2 0 -3
33 -11 73 -8 39 -20 104 -28 142 -24 124 -84 409 -95 450 -6 22 -17 76 -25
120 -8 44 -20 108 -28 143 -8 35 -11 65 -7 67 6 4 211 38 295 49 22 3 69 10
105 16 36 6 121 18 190 26 69 9 150 20 180 25 30 5 93 13 139 19 47 6 87 12
89 15 10 10 23 5 28 -12z m3862 -75 l3 -68 -33 6 c-28 5 -129 28 -278 64 -19
4 -62 13 -95 19 -110 21 -205 43 -205 47 0 2 136 3 303 2 l302 -3 3 -67z
m-473 -44 c137 -27 191 -36 345 -59 213 -33 247 -43 254 -77 3 -13 8 -61 11
-108 3 -47 9 -119 13 -160 4 -41 7 -106 7 -145 l0 -70 -82 -3 c-46 -2 -83 -7
-83 -11 0 -5 21 -14 48 -21 79 -22 98 -36 121 -89 11 -27 33 -59 47 -70 33
-26 95 -28 134 -4 32 19 55 76 48 122 l-5 31 385 0 385 0 -6 -97 c-4 -54 -13
-120 -21 -146 -34 -107 -115 -203 -208 -245 -16 -6 -38 -17 -50 -22 -13 -6
-39 -15 -58 -21 -49 -16 -955 -30 -1085 -17 -133 13 -216 51 -302 136 -67 66
-77 85 -40 80 26 -3 25 -7 3 132 -23 136 -22 148 12 156 15 3 45 12 67 20 40
13 40 14 -27 8 l-68 -6 0 34 c0 33 2 35 28 31 15 -3 22 -1 16 4 -7 5 -15 97
-23 238 -6 127 -14 269 -17 318 -4 68 -3 87 8 87 7 0 72 -12 143 -26z m1583
-507 l-3 -112 -372 -3 -373 -2 0 39 c0 22 -2 46 -5 53 -6 14 37 26 180 48 39
6 93 15 120 20 28 6 84 15 125 20 41 6 104 16 140 21 98 16 153 24 173 26 16
2 17 -8 15 -110z m-3127 -98 c4 -13 10 -36 13 -51 6 -25 11 -28 46 -28 22 0
40 -5 40 -11 0 -5 -12 -36 -26 -67 -14 -31 -51 -115 -81 -187 -30 -71 -67
-157 -82 -190 -15 -33 -63 -144 -107 -247 -88 -210 -78 -199 -181 -178 -26 5
-90 15 -140 22 l-93 12 0 452 0 451 63 7 c103 12 501 42 526 40 8 0 18 -12 22
-25z m-1271 -519 c22 -52 49 -113 60 -135 10 -22 44 -98 75 -170 58 -134 69
-159 115 -260 67 -146 143 -328 137 -329 -1 -1 -18 -8 -37 -17 -53 -25 -100
-45 -150 -65 -25 -9 -49 -20 -55 -24 -5 -4 -41 -20 -80 -35 -38 -15 -75 -31
-80 -36 -6 -4 -37 -18 -70 -30 -33 -12 -73 -30 -90 -39 -62 -34 -66 -34 -61 8
3 20 40 307 81 637 41 330 78 611 81 625 l6 25 14 -30 c7 -16 32 -73 54 -125z
m926 -503 c5 -5 -68 -149 -105 -207 -9 -14 -25 -25 -36 -24 -11 1 -44 2 -72 3
l-53 1 0 121 0 122 131 -5 c71 -3 132 -8 135 -11z m259 -12 c88 -4 168 -9 178
-11 14 -5 17 -18 17 -83 l0 -78 -42 -11 c-24 -6 -79 -16 -123 -22 -134 -19
-202 -29 -275 -41 -39 -7 -72 -10 -74 -8 -3 2 13 47 35 99 67 163 74 173 103
166 12 -2 93 -8 181 -11z m695 -80 c8 -2 53 -4 100 -5 135 -1 72 -17 -92 -23
l-148 -5 0 25 c0 25 1 25 63 18 34 -4 69 -9 77 -10z m-280 -967 c0 -32 -59
-638 -65 -664 -3 -14 -15 -24 -32 -27 -26 -5 -155 -33 -268 -58 -27 -6 -68
-15 -90 -19 -142 -28 -205 -41 -240 -49 -22 -5 -87 -19 -145 -31 -58 -12 -121
-26 -140 -30 -91 -21 -142 -31 -220 -46 -125 -24 -150 -27 -150 -20 0 3 42 49
93 102 92 96 113 122 104 130 -4 4 -80 -62 -247 -215 -48 -44 -64 -52 -130
-66 -91 -19 -153 -33 -200 -45 -53 -14 -157 -23 -145 -13 41 35 147 153 139
153 -7 0 -51 -40 -100 -89 -71 -71 -97 -90 -127 -95 l-37 -7 24 53 c26 58 108
230 193 408 31 63 66 138 78 166 23 49 24 50 82 62 32 6 92 21 133 32 41 11
107 29 145 40 39 10 106 29 150 41 44 12 105 27 135 34 30 7 82 21 115 30 146
40 172 47 205 57 45 12 92 24 155 38 44 10 192 51 295 80 65 19 265 69 278 69
6 1 12 -9 12 -21z m4034 -7 c17 -6 58 -15 91 -22 33 -7 85 -18 115 -26 30 -8
78 -19 105 -24 28 -5 68 -14 90 -19 22 -5 74 -16 115 -24 41 -9 93 -20 115
-25 22 -5 65 -14 95 -21 30 -7 71 -16 90 -20 19 -4 60 -13 90 -20 30 -7 73
-16 95 -22 22 -5 72 -15 112 -23 39 -8 102 -21 140 -30 37 -9 86 -20 108 -25
22 -5 60 -13 85 -19 25 -5 70 -15 100 -22 108 -23 100 -16 155 -135 27 -61 60
-132 72 -160 60 -137 117 -264 139 -312 13 -29 24 -55 24 -57 0 -5 -27 -1
-210 34 -191 36 -270 50 -310 56 -25 3 -67 10 -95 16 -27 5 -72 14 -100 19
-27 5 -75 14 -105 20 -30 6 -77 15 -105 20 -27 5 -72 14 -100 19 -27 5 -77 14
-110 20 -198 35 -244 43 -285 51 -25 5 -97 18 -160 30 -63 11 -131 25 -151 30
-20 6 -46 10 -58 10 -11 0 -21 2 -21 5 0 3 46 58 103 121 56 63 104 119 105
124 6 17 -20 11 -37 -8 -9 -9 -43 -39 -76 -67 -33 -27 -82 -70 -108 -95 -84
-78 -97 -77 -97 6 0 50 2 55 28 67 15 6 29 14 32 17 3 3 16 11 29 18 13 8 39
22 57 33 19 10 51 28 72 40 20 12 40 23 45 26 16 9 -4 22 -21 13 -9 -5 -37
-18 -62 -29 -25 -10 -66 -28 -92 -40 -96 -43 -95 -43 -102 -9 -10 52 -8 57 32
63 85 14 142 29 142 36 0 5 -42 10 -92 11 l-93 3 -17 165 c-20 202 -19 190
-11 190 4 0 20 -4 37 -9z m-6065 -842 c-68 -123 -133 -243 -146 -267 l-23 -43
35 -262 c20 -144 42 -305 49 -357 8 -52 10 -99 6 -104 -5 -4 -39 -12 -77 -16
-37 -5 -106 -14 -153 -20 -113 -15 -205 -26 -320 -39 -52 -6 -128 -15 -167
-21 -95 -13 -196 -26 -308 -40 -49 -6 -103 -13 -118 -16 -16 -2 -27 0 -25 5 2
8 349 368 573 597 75 76 556 573 680 701 60 62 110 111 112 109 2 -2 -51 -104
-118 -227z m1981 58 c0 -2 34 -196 75 -433 149 -854 167 -954 225 -1289 76
-436 73 -398 30 -406 -39 -7 -225 -47 -280 -59 -19 -4 -82 -17 -140 -29 -138
-27 -206 -41 -257 -52 -55 -12 -115 -24 -180 -38 -29 -6 -77 -16 -105 -22 -29
-6 -71 -15 -93 -20 -22 -5 -67 -13 -100 -19 -33 -5 -80 -14 -105 -20 -25 -6
-66 -15 -92 -20 -27 -6 -69 -14 -95 -20 -27 -5 -66 -14 -88 -19 -22 -5 -87
-18 -145 -30 -193 -38 -215 -42 -250 -51 -19 -5 -38 -6 -41 -2 -4 4 -46 246
-94 537 -48 292 -122 742 -164 1000 -56 339 -75 472 -67 477 11 6 67 22 246
70 41 10 91 24 110 29 19 5 62 16 95 23 58 14 184 47 255 67 19 6 51 14 70 19
19 5 53 14 75 20 22 6 67 18 100 26 33 7 76 18 95 23 19 5 80 21 135 35 55 15
114 31 130 36 43 13 99 27 190 49 44 11 107 27 140 36 33 9 103 28 155 42 52
14 109 28 125 33 36 10 45 11 45 7z m6201 -84 c23 -21 48 -42 57 -47 13 -8 48
-36 86 -71 6 -6 33 -28 61 -50 27 -22 55 -44 61 -50 29 -26 74 -63 119 -100
28 -21 52 -42 55 -45 3 -3 27 -24 55 -45 27 -22 59 -48 70 -59 11 -10 67 -57
125 -104 58 -48 107 -89 110 -92 3 -3 28 -23 55 -45 28 -22 55 -44 61 -50 24
-22 72 -62 119 -100 28 -21 52 -42 55 -45 3 -3 43 -37 90 -75 47 -38 87 -72
90 -75 3 -3 28 -23 55 -45 89 -71 95 -81 38 -70 -20 4 -74 11 -120 16 -84 9
-192 22 -338 39 -44 5 -143 16 -220 25 -77 8 -179 19 -227 25 -49 5 -125 14
-170 20 -46 5 -108 12 -138 16 l-55 7 21 -24 c72 -83 269 -305 273 -309 4 -3
38 -41 76 -85 39 -44 75 -85 80 -91 13 -15 126 -142 145 -164 42 -48 136 -154
145 -164 76 -84 177 -197 196 -220 13 -16 39 -44 57 -63 39 -41 36 -50 -10
-30 -18 9 -55 25 -83 37 -53 23 -120 54 -208 95 -30 14 -57 25 -60 25 -3 0
-47 20 -99 44 -143 66 -186 86 -193 86 -3 0 -39 16 -80 35 -41 19 -109 51
-150 70 -41 19 -77 35 -81 35 -3 0 -40 16 -81 36 -41 19 -76 34 -78 32 -2 -2
18 -37 44 -78 26 -41 83 -131 126 -200 43 -69 97 -154 121 -190 23 -36 77
-122 121 -192 43 -70 90 -147 105 -170 15 -24 43 -70 63 -103 20 -33 80 -128
133 -211 53 -84 109 -171 123 -195 15 -24 74 -119 132 -211 95 -151 117 -197
81 -167 -7 5 -59 34 -116 63 -56 29 -130 68 -163 86 -33 18 -107 57 -165 87
-58 31 -150 79 -205 108 -55 29 -145 76 -200 105 -55 28 -147 77 -204 108 -80
42 -103 51 -97 36 4 -10 19 -50 33 -89 111 -310 186 -516 198 -545 13 -32 46
-122 164 -448 23 -63 41 -118 41 -123 0 -5 -17 2 -37 16 -21 14 -41 25 -46 25
-5 0 -28 14 -52 30 -24 16 -47 30 -50 30 -4 0 -19 9 -34 19 -14 11 -47 30 -71
43 -68 37 -122 68 -150 87 -14 9 -50 30 -80 45 -30 16 -66 37 -80 46 -27 19
-80 50 -150 88 -25 13 -49 28 -55 32 -11 8 -28 18 -165 95 -47 27 -96 56 -110
65 -14 10 -41 26 -60 37 -19 11 -57 32 -85 48 -27 15 -62 36 -77 46 -36 26
-48 24 -43 -8 3 -16 21 -136 40 -268 43 -292 54 -368 70 -465 6 -41 8 -77 3
-78 -4 -2 -30 9 -56 24 -26 16 -60 37 -77 46 -16 10 -41 24 -55 30 -14 7 -27
15 -30 18 -3 3 -16 11 -29 18 -13 8 -38 22 -55 32 -120 69 -158 90 -161 90 -2
0 -39 21 -82 48 -43 26 -89 53 -103 59 -14 7 -47 26 -75 43 -27 17 -58 33 -67
37 -10 3 -18 9 -18 14 0 5 -4 9 -9 9 -8 0 -50 23 -168 91 -44 25 -88 50 -148
83 -27 16 -54 32 -60 36 -11 8 -65 40 -130 75 -22 12 -71 41 -109 63 l-68 42
6 -38 c3 -20 35 -235 71 -477 36 -242 74 -493 83 -557 10 -65 16 -118 12 -118
-7 0 -32 23 -296 276 l-161 153 -28 88 c-30 94 -126 325 -177 427 -62 125
-186 335 -276 471 -75 113 -92 145 -88 167 6 32 -7 293 -30 580 l-16 208 50
55 c59 65 124 159 187 276 41 75 46 80 40 45 -26 -159 -26 -161 43 -658 37
-263 70 -478 75 -478 4 0 45 -22 90 -49 85 -51 94 -54 302 -86 50 -8 116 -19
148 -25 31 -5 82 -14 112 -20 30 -5 80 -14 110 -20 30 -5 81 -15 113 -21 85
-15 146 -26 252 -43 52 -8 121 -20 153 -25 31 -6 82 -15 112 -21 30 -5 81 -15
113 -21 56 -10 95 -17 217 -38 33 -5 87 -15 120 -20 84 -15 79 -16 138 37 56
49 96 85 193 167 32 28 79 68 104 91 25 22 58 52 74 65 16 13 52 44 81 69 28
25 77 68 110 95 96 82 155 142 155 158 0 17 104 733 191 1317 11 74 37 257 59
405 22 149 48 328 59 400 l20 129 -70 139 c-38 77 -69 141 -69 143 0 10 14 1
51 -33z m-1966 -2 c129 -21 204 -32 300 -47 94 -14 142 -21 290 -44 33 -5 89
-14 125 -20 36 -6 92 -15 125 -20 33 -5 89 -14 125 -20 36 -6 110 -17 165 -25
55 -8 127 -18 160 -24 88 -14 191 -31 265 -42 36 -5 92 -14 125 -19 33 -6 82
-13 108 -16 29 -4 51 -13 54 -21 3 -8 1 -45 -5 -81 -22 -131 -217 -1367 -256
-1622 -8 -47 -24 -152 -37 -234 l-23 -148 -40 7 c-60 10 -194 36 -281 55 -27
5 -76 14 -107 19 -32 5 -61 12 -66 15 -5 3 -108 -19 -228 -50 -121 -30 -250
-61 -289 -70 -38 -8 -87 -19 -107 -24 -21 -6 -56 -14 -78 -20 -22 -5 -58 -14
-80 -20 -22 -5 -58 -14 -80 -20 -22 -5 -57 -14 -77 -20 -21 -5 -60 -14 -88
-20 -41 -8 -410 -98 -480 -116 -18 -5 -76 -18 -186 -43 -19 -4 -41 -11 -47
-15 -7 -4 -12 -1 -12 7 0 23 30 117 38 117 4 0 39 7 77 15 39 9 106 22 150 30
44 8 100 18 125 24 43 9 117 24 205 41 80 15 201 40 245 50 25 5 74 15 110 21
36 6 83 15 105 19 22 5 63 13 90 18 28 5 97 20 155 32 130 28 168 35 250 50
35 6 66 13 68 15 2 2 -13 7 -34 10 -55 9 -134 26 -168 36 -15 5 -31 7 -35 4
-4 -2 -34 -9 -67 -14 -32 -6 -86 -15 -119 -21 -33 -6 -103 -18 -155 -26 -112
-18 -173 -29 -255 -44 -59 -12 -81 -16 -215 -40 -36 -6 -85 -15 -110 -20 -25
-5 -88 -15 -140 -24 -52 -8 -122 -19 -154 -25 -33 -6 -62 -9 -64 -6 -2 2 -2
19 2 38 6 33 8 34 76 45 72 12 147 23 285 42 44 6 91 13 105 16 14 2 84 11
155 20 72 9 157 20 190 25 68 9 160 22 285 39 46 6 86 12 87 14 3 3 -21 7
-203 38 -49 8 -89 8 -155 -1 -91 -11 -187 -22 -364 -41 -55 -6 -136 -15 -180
-20 -160 -18 -205 -21 -205 -12 0 5 11 35 24 68 l24 59 267 -4 c226 -3 267 -2
263 10 -3 8 -22 17 -44 20 -40 6 -165 31 -244 49 -25 5 -75 15 -113 21 -37 6
-69 14 -71 18 -3 4 4 63 14 132 37 250 61 393 65 397 2 2 46 13 97 23 51 11
113 24 138 29 134 30 242 52 300 61 84 13 130 28 130 41 0 7 -18 8 -52 4 -142
-19 -590 -57 -596 -51 -2 2 3 50 12 107 9 57 54 355 101 663 47 308 87 571 91
584 6 26 -5 26 139 2z m-2170 -31 c24 -17 56 -51 71 -76 30 -51 30 -39 -5
-274 -31 -204 -51 -464 -51 -655 l0 -172 -42 -45 c-52 -54 -102 -78 -177 -85
-72 -7 -152 27 -209 88 -64 68 -68 80 -48 146 38 120 37 304 -3 387 -16 31
-21 62 -21 118 l0 75 53 18 c99 34 255 30 397 -11 25 -7 25 -7 5 12 -82 79
-146 99 -317 98 l-138 -1 0 27 c0 141 87 295 196 350 65 32 106 40 182 35 49
-3 72 -11 107 -35z m-663 -11 c41 -9 158 -71 158 -85 0 -1 -14 -44 -31 -96
-26 -82 -42 -185 -59 -385 0 -2 -30 -3 -66 -3 -53 0 -78 -6 -132 -32 -37 -18
-68 -36 -70 -40 -2 -4 -10 -8 -17 -8 -7 0 -41 -21 -74 -46 -34 -26 -63 -45
-65 -43 -1 2 -8 51 -16 109 -7 58 -15 119 -17 135 -4 29 -2 31 41 43 56 15
264 16 302 2 15 -6 29 -8 32 -5 9 9 -32 47 -67 62 -49 21 -185 43 -263 43 -38
0 -68 3 -68 7 0 10 71 134 111 194 52 77 121 136 172 148 58 13 69 13 129 0z
m1171 -69 c54 -25 101 -67 119 -105 80 -164 66 -452 -41 -815 -51 -174 -55
-184 -88 -218 -41 -41 -88 -57 -173 -57 -86 0 -128 16 -179 69 l-34 35 12 252
c6 139 16 258 21 264 15 18 129 72 180 85 51 13 253 10 285 -4 17 -8 16 -5 -5
18 -37 41 -99 80 -150 96 -47 14 -242 17 -281 5 -22 -7 -22 -7 -15 91 12 156
42 223 124 275 39 25 56 29 114 29 47 0 81 -6 111 -20z m447 -215 c39 -20 106
-90 121 -128 9 -22 10 -55 1 -139 -5 -60 -13 -112 -16 -115 -3 -3 -27 14 -54
39 -64 60 -153 98 -232 98 -29 0 -32 3 -26 23 3 12 6 70 6 129 0 102 1 107 23
112 40 8 146 -3 177 -19z m-1557 -364 c52 -22 61 -42 77 -165 10 -80 7 -126
-12 -206 -41 -165 -188 -311 -375 -371 -114 -36 -114 -38 5 -38 70 -1 112 -5
112 -11 0 -6 -7 -27 -15 -47 -8 -20 -14 -38 -11 -40 2 -2 29 21 61 52 64 61
59 60 205 45 139 -15 216 -42 322 -112 65 -43 87 -69 124 -143 22 -46 26 -66
25 -144 -1 -128 -29 -211 -93 -272 -27 -26 -63 -50 -81 -54 -39 -8 -35 -10 80
-26 l92 -13 38 -69 37 -69 11 53 c16 84 59 93 97 18 14 -27 18 -60 18 -157 0
-68 -5 -132 -10 -143 -14 -25 -64 -25 -122 -1 -24 11 -72 22 -108 25 l-65 6
55 -14 c77 -21 191 -80 251 -132 67 -57 120 -80 199 -87 36 -3 56 -3 45 0 -45
13 -92 40 -130 76 l-40 37 7 123 c3 68 9 180 13 251 l7 127 32 0 c64 0 57 16
-15 34 -161 39 -240 143 -240 314 0 46 7 94 18 125 23 64 97 146 160 176 26
13 57 28 67 33 11 6 101 14 200 19 196 9 252 14 306 30 98 29 186 95 197 150
5 26 9 29 46 29 l40 0 -7 -77 c-25 -274 -155 -515 -369 -681 l-48 -37 55 -3
c41 -2 56 -7 60 -20 31 -96 65 -566 66 -897 1 -240 6 -262 29 -130 19 105 19
105 52 52 145 -233 366 -803 389 -1004 27 -231 -38 -568 -176 -919 -67 -170
-58 -160 -135 -156 l-66 3 -7 87 c-16 204 -51 373 -91 451 l-24 46 6 -230 c3
-126 3 -260 -1 -297 l-8 -68 -432 0 -433 0 18 93 c10 50 23 145 29 210 19 216
36 257 156 362 71 61 93 75 120 75 38 0 50 -16 64 -83 7 -40 8 -39 9 25 1 85
-4 98 -41 98 -43 0 -94 -28 -209 -116 -186 -142 -419 -391 -475 -507 l-15 -32
23 30 c51 67 286 297 299 293 8 -3 15 -14 17 -26 7 -44 -39 -189 -90 -291 -29
-58 -54 -108 -56 -112 -2 -4 9 -9 25 -11 51 -7 -419 -19 -596 -16 -128 2 -175
6 -179 16 -2 8 11 12 47 12 28 0 51 3 51 8 0 4 -7 32 -15 62 -28 103 -55 285
-66 435 -29 424 52 838 228 1165 50 93 143 232 198 295 l35 40 0 -45 c1 -25 4
-63 8 -85 8 -40 8 -40 25 40 37 175 51 325 51 575 1 135 -3 273 -7 306 l-8 62
51 18 c50 18 51 34 2 34 -12 0 -30 4 -40 9 -9 4 -53 26 -97 47 -162 80 -252
166 -433 421 -92 129 -132 165 -261 235 -91 49 -110 113 -87 305 22 180 42
249 89 301 17 18 31 22 86 22 97 0 192 39 266 109 108 102 198 131 288 92z
m1483 3 c52 -18 116 -71 141 -118 14 -26 13 -33 -7 -90 -29 -79 -92 -204 -137
-272 -24 -37 -48 -59 -79 -73 -74 -35 -118 -25 -163 37 l-20 28 25 70 c29 78
67 233 84 342 10 60 16 75 34 82 33 13 68 12 122 -6z m-1978 -43 c2 -25 1 -56
-3 -69 -6 -24 -8 -25 -77 -19 -95 8 -131 -11 -173 -92 -19 -39 -45 -146 -45
-192 l0 -37 -62 -4 c-76 -6 -89 2 -119 81 -30 80 -30 210 0 268 11 24 31 49
44 56 36 22 123 38 257 47 183 11 174 13 178 -39z m2412 33 c69 -6 169 -26
189 -38 17 -11 34 -97 28 -146 -7 -59 -48 -149 -90 -196 l-30 -35 -188 3
c-104 2 -189 4 -189 4 0 1 18 55 39 120 22 66 48 161 57 212 l18 93 46 -5 c25
-3 79 -8 120 -12z m-5364 -811 c30 -219 54 -407 54 -419 0 -22 -20 -28 -175
-54 -38 -7 -88 -16 -110 -20 -22 -5 -62 -12 -90 -15 -27 -3 -70 -10 -95 -14
-91 -18 -157 -30 -220 -41 -36 -6 -85 -16 -109 -21 -24 -6 -46 -8 -48 -5 -3 3
12 28 33 55 22 27 57 76 79 107 22 31 45 62 50 68 6 6 39 52 75 101 35 50 68
95 73 100 14 17 117 156 237 320 178 241 182 247 187 242 2 -3 29 -185 59
-404z m3021 -348 c17 -27 43 -83 58 -124 41 -108 125 -190 276 -268 22 -11 28
-25 42 -100 31 -163 39 -238 40 -384 0 -142 0 -148 -30 -210 -17 -35 -75 -125
-130 -199 -88 -121 -165 -230 -200 -286 -43 -67 -126 -247 -157 -340 l-36
-109 -76 -55 c-42 -30 -85 -63 -97 -72 -30 -27 -35 -22 -26 25 4 23 22 112 38
197 87 452 152 788 157 809 4 20 3 21 -9 10 -22 -22 -239 -205 -390 -329 -17
-14 -65 -54 -107 -90 -42 -36 -123 -103 -179 -149 -57 -46 -108 -89 -114 -95
-7 -6 -51 -43 -98 -83 -48 -39 -93 -78 -100 -85 -8 -7 -37 -31 -64 -53 -28
-22 -55 -44 -61 -50 -6 -5 -32 -28 -59 -50 -27 -22 -67 -56 -90 -75 -22 -19
-63 -53 -89 -75 -27 -22 -58 -48 -70 -58 -11 -11 -41 -35 -65 -55 -24 -21 -69
-58 -100 -84 -52 -44 -80 -61 -67 -39 3 5 28 91 55 192 60 222 190 697 198
723 4 13 -14 5 -63 -30 -38 -27 -71 -51 -74 -54 -3 -3 -36 -28 -75 -55 -38
-27 -100 -72 -137 -100 -37 -27 -92 -68 -124 -90 -31 -22 -62 -45 -68 -50 -6
-6 -42 -33 -81 -60 -38 -27 -89 -63 -111 -80 -23 -16 -54 -39 -70 -50 -15 -11
-51 -37 -78 -58 -28 -20 -52 -34 -54 -29 -1 5 60 136 137 293 76 156 170 348
208 427 38 78 71 141 74 139 2 -3 27 -1 54 3 105 16 272 43 315 50 73 13 171
30 230 40 30 5 82 14 115 20 104 19 158 28 235 39 41 6 98 15 125 20 28 6 79
15 115 21 36 6 88 15 115 20 28 5 78 14 113 20 226 37 321 57 335 67 7 5 47
35 89 67 46 34 80 66 82 79 3 12 7 65 10 117 12 190 56 806 62 848 l5 43 18
-23 c9 -13 31 -45 48 -73z m-2929 -322 c2 -26 37 -287 48 -359 3 -22 18 -40
57 -69 28 -22 54 -42 57 -45 3 -4 23 -19 45 -35 22 -17 42 -32 45 -36 5 -5 77
-62 140 -109 18 -14 42 -33 54 -44 11 -10 41 -32 66 -49 25 -17 61 -46 80 -63
19 -18 49 -43 65 -55 17 -13 44 -36 60 -51 17 -15 33 -28 36 -28 4 0 9 -7 12
-14 4 -11 -22 -29 -91 -64 -109 -55 -344 -177 -502 -259 -58 -31 -170 -89
-250 -130 -307 -160 -389 -202 -504 -261 -66 -34 -121 -60 -123 -58 -2 2 15
28 39 57 23 30 46 59 50 64 4 6 22 28 41 50 18 22 64 81 102 130 38 50 74 95
80 101 5 7 19 24 30 40 11 15 25 32 30 38 15 17 126 155 260 326 66 84 134
169 150 189 37 43 129 162 138 177 4 7 -8 8 -41 2 -67 -11 -149 -27 -207 -38
-27 -5 -95 -17 -150 -26 -55 -8 -120 -19 -145 -24 -25 -5 -72 -13 -105 -18
-33 -6 -67 -12 -75 -15 -8 -3 -49 -10 -90 -17 -41 -6 -94 -16 -118 -22 -23 -6
-45 -9 -47 -6 -3 3 106 115 241 249 136 134 303 301 373 371 69 69 131 127
136 127 6 1 12 -11 13 -26z m1942 -132 c0 -13 -121 -42 -390 -96 -41 -8 -93
-19 -115 -24 -22 -5 -62 -14 -90 -20 -27 -6 -90 -20 -140 -31 -89 -20 -299
-64 -385 -81 -25 -5 -63 -13 -85 -18 -22 -5 -65 -14 -95 -21 -30 -7 -73 -16
-95 -21 -109 -26 -116 -25 -164 25 -25 25 -42 49 -38 52 4 4 33 11 65 16 31 5
85 13 120 18 34 6 90 14 125 20 34 5 89 13 122 19 202 33 294 47 435 66 58 8
134 19 170 25 36 6 93 15 128 20 34 6 90 14 125 20 34 5 93 14 131 20 39 6 72
13 75 15 8 9 101 5 101 -4z m-92 -163 c-3 -23 -43 -36 -238 -77 -25 -6 -137
-32 -250 -60 -204 -50 -268 -65 -345 -81 -37 -7 -124 -29 -205 -50 -19 -5 -60
-14 -90 -21 -30 -6 -68 -15 -84 -20 -50 -15 -76 -10 -100 19 -43 50 -57 44
219 95 44 8 150 29 235 47 85 18 175 36 200 40 25 5 68 14 95 20 28 6 88 18
135 27 91 16 149 27 220 43 25 6 69 14 99 20 29 5 56 12 59 15 3 3 16 5 29 5
20 0 24 -5 21 -22z m-178 -153 c-19 -7 -150 -50 -290 -95 -140 -46 -334 -109
-430 -140 -267 -89 -241 -86 -289 -35 -23 24 -41 46 -41 48 0 3 15 8 33 12 17
4 50 11 72 16 22 5 74 16 115 25 41 8 93 19 115 23 22 5 83 19 135 31 52 12
113 26 135 31 40 8 238 50 325 69 25 6 61 14 80 19 55 14 80 12 40 -4z m990
-2760 l0 -115 -502 0 c-702 -1 -734 -5 -828 -100 -70 -71 -85 -109 -85 -215 0
-77 4 -98 27 -145 34 -71 53 -91 113 -124 46 -26 60 -29 225 -37 96 -4 266
-10 378 -11 l203 -3 -7 100 c-3 55 -9 102 -11 105 -3 3 -131 5 -286 5 l-282 0
-3 114 -3 114 287 -6 c158 -4 397 -7 531 -7 l243 0 0 -326 0 -325 -687 4
c-764 5 -751 4 -924 76 -149 62 -269 178 -305 294 -21 71 -29 200 -15 267 42
200 217 346 503 420 89 23 205 27 816 29 l612 1 0 -115z m603 93 c18 -13 43
-32 57 -44 24 -21 276 -222 334 -267 16 -12 40 -32 54 -44 22 -18 27 -19 39
-7 8 8 31 27 51 42 21 15 39 29 42 32 3 3 30 24 60 46 30 23 65 50 77 61 12
11 34 28 48 39 15 10 42 30 59 44 52 40 89 68 126 95 l34 25 268 0 c147 0 268
-3 268 -8 0 -4 -12 -16 -27 -27 -14 -11 -52 -40 -84 -65 -31 -25 -69 -54 -85
-65 -25 -18 -134 -103 -160 -124 -17 -14 -149 -114 -179 -136 -29 -21 -167
-128 -220 -170 -16 -14 -33 -25 -37 -25 -5 0 -8 -106 -8 -235 l0 -235 -232 2
-233 3 -1 60 c-1 33 -2 137 -3 231 l-1 171 -47 34 c-27 18 -52 37 -58 42 -5 4
-35 26 -65 48 -30 22 -63 46 -72 54 -9 7 -29 22 -45 32 -15 10 -32 21 -38 26
-13 10 -195 144 -220 163 -52 36 -281 207 -289 215 -6 5 104 9 273 9 277 0
284 0 314 -22z m2298 -68 c31 -47 150 -226 264 -398 114 -173 211 -310 214
-305 4 4 95 148 201 318 107 171 218 347 247 393 l54 82 329 0 330 0 0 -535
c0 -294 0 -538 0 -542 0 -5 -96 -8 -212 -8 l-213 0 -2 358 c0 197 -3 361 -6
363 -2 3 -68 -95 -146 -218 -79 -123 -169 -263 -201 -313 -33 -49 -73 -114
-90 -142 l-30 -53 -245 0 c-205 0 -245 2 -245 14 0 8 -4 16 -8 18 -5 2 -65 86
-134 188 -69 102 -153 226 -187 275 -34 50 -88 128 -119 174 l-57 84 -3 -377
-2 -376 -235 0 -235 0 0 545 0 545 337 -2 336 -3 58 -85z"/>
<path d="M8188 11613 c7 -3 16 -2 19 1 4 3 -2 6 -13 5 -11 0 -14 -3 -6 -6z"/>
<path d="M5936 13003 c-6 -14 -5 -15 5 -6 7 7 10 15 7 18 -3 3 -9 -2 -12 -12z"/>
<path d="M6121 10394 c0 -11 3 -14 6 -6 3 7 2 16 -1 19 -3 4 -6 -2 -5 -13z"/>
<path d="M4312 8484 c-12 -8 -22 -26 -22 -39 0 -20 32 -55 50 -55 13 0 50 41
50 55 0 14 -37 55 -50 55 -3 0 -16 -7 -28 -16z"/>
<path d="M4425 8234 l-30 -25 33 17 c17 10 32 22 32 26 0 12 -2 11 -35 -18z"/>
<path d="M4302 8152 c-29 -19 -50 -37 -48 -39 3 -3 26 10 53 28 59 40 57 38
52 43 -2 2 -28 -12 -57 -32z"/>
<path d="M5442 7788 c-7 -7 -12 -24 -12 -38 0 -31 17 -50 45 -50 28 0 45 18
45 48 0 43 -49 69 -78 40z"/>
<path d="M4597 6802 c-41 -45 5 -118 60 -93 58 26 41 110 -23 111 -11 0 -28
-8 -37 -18z"/>
<path d="M4547 6445 c-37 -38 -111 -114 -165 -168 -88 -90 -94 -98 -68 -95 28
3 62 36 175 174 14 16 49 57 79 92 30 34 53 64 51 65 -2 2 -35 -29 -72 -68z"/>
<path d="M4950 6455 c-6 -14 -21 -58 -34 -98 -13 -40 -56 -165 -95 -279 -39
-113 -71 -209 -71 -212 0 -3 20 -6 43 -6 l44 0 16 73 c58 256 118 515 123 530
9 27 -15 20 -26 -8z"/>
<path d="M4634 6192 c-94 -141 -175 -263 -178 -269 -5 -9 2 -13 23 -13 27 0
34 8 92 113 34 61 85 153 114 202 70 121 127 225 123 225 -2 0 -80 -116 -174
-258z"/>
<path d="M5087 6393 c-3 -5 -8 -84 -11 -178 -4 -93 -9 -198 -12 -232 l-6 -63
42 0 c42 0 42 0 37 33 -3 17 -11 125 -18 240 -11 185 -17 225 -32 200z"/>
<path d="M10266 7214 c-32 -32 -15 -86 28 -86 52 0 75 51 38 85 -23 21 -46 22
-66 1z"/>
<path d="M9850 7003 l0 -43 300 0 c179 0 300 4 300 9 0 14 -24 19 -145 31 -60
6 -153 15 -205 21 -52 5 -130 13 -172 17 l-78 8 0 -43z"/>
<path d="M10405 6678 c-44 -17 -89 -34 -100 -39 -11 -5 -110 -45 -220 -88
-217 -86 -212 -82 -174 -146 l20 -34 67 36 c37 19 72 39 77 43 13 10 76 46
155 88 36 19 70 38 75 42 11 9 68 41 135 77 94 50 74 62 -35 21z"/>
<path d="M10453 6507 c-67 -45 -191 -134 -290 -206 l-61 -45 44 -28 45 -28
177 175 c97 96 170 175 162 174 -8 0 -43 -19 -77 -42z"/>
<path d="M7296 7358 c-4 -13 -10 -72 -13 -132 -6 -106 -7 -110 -39 -146 -18
-20 -45 -42 -61 -50 -15 -8 -47 -27 -71 -43 -31 -21 -52 -27 -80 -25 -34 3
-38 7 -52 45 -12 35 -12 56 -3 120 6 43 10 79 9 81 -2 1 -16 -24 -32 -55 -25
-50 -29 -69 -29 -140 0 -88 9 -104 64 -119 73 -20 237 69 297 161 17 25 19 48
19 177 0 81 -1 148 -1 148 -1 0 -5 -10 -8 -22z"/>
<path d="M7855 5430 c3 -5 12 -10 20 -10 7 0 39 -14 71 -31 117 -61 158 -106
170 -188 7 -43 7 -43 20 -20 7 13 13 35 14 48 0 18 4 22 18 15 25 -12 139 -17
170 -8 22 6 14 9 -39 14 -77 7 -152 41 -223 100 -49 40 -82 59 -145 79 -43 14
-84 14 -76 1z"/>
<path d="M8403 4212 c-73 -103 -218 -248 -372 -372 -24 -19 -48 -39 -55 -45
-6 -5 -42 -35 -81 -67 -125 -101 -248 -228 -356 -368 -81 -105 -96 -130 -40
-68 108 121 294 295 376 353 151 106 280 218 376 329 85 98 208 280 197 292
-3 2 -23 -22 -45 -54z"/>
<path d="M8474 4063 c-15 -21 -31 -40 -35 -43 -4 -3 -23 -25 -43 -48 l-36 -44
1 -161 c1 -154 1 -160 14 -113 8 27 19 99 26 160 8 64 19 117 26 125 18 17 86
152 80 157 -2 3 -17 -12 -33 -33z"/>
<path d="M6765 13940 c-38 -28 -101 -71 -140 -96 -38 -26 -72 -50 -75 -53 -3
-4 -50 -37 -105 -73 -180 -120 -205 -139 -205 -156 0 -23 55 -261 62 -267 9
-9 184 37 197 51 5 5 40 70 78 144 39 74 103 198 143 275 40 77 83 159 97 183
13 23 23 42 21 41 -2 0 -34 -22 -73 -49z"/>
<path d="M11160 13822 c-1 -20 -7 -118 -14 -217 -10 -132 -10 -182 -2 -187 6
-4 40 -8 76 -8 36 0 110 -4 165 -10 55 -5 168 -14 250 -20 83 -6 195 -15 249
-20 55 -6 101 -8 104 -6 3 4 -53 82 -69 96 -3 3 -33 39 -65 81 -162 207 -158
204 -216 217 -80 19 -183 42 -323 73 -55 11 -112 25 -127 30 -27 8 -28 7 -28
-29z"/>
<path d="M8931 13693 c18 -21 62 -67 97 -103 73 -75 69 -39 32 -305 -23 -168
-37 -482 -23 -534 l9 -34 41 54 c22 30 50 64 61 77 l20 23 6 -38 c6 -36 66
-733 102 -1184 l16 -205 -55 -130 c-30 -71 -69 -163 -85 -205 l-31 -76 25
-274 c47 -537 54 -613 54 -627 0 -9 14 -3 39 17 38 30 66 39 73 23 2 -5 26
-23 53 -42 28 -18 52 -37 55 -40 3 -4 37 -27 75 -53 39 -25 88 -59 110 -75 38
-28 43 -29 105 -21 36 5 107 14 157 20 l93 12 103 106 103 106 33 180 c31 170
83 446 116 618 20 106 133 702 201 1067 30 162 59 319 65 347 9 46 14 54 37
58 15 3 41 10 58 15 17 6 39 10 50 10 21 0 28 35 100 476 l28 171 41 19 c22
10 43 20 46 21 3 2 11 -182 18 -410 l12 -413 -75 -294 c-42 -162 -100 -389
-130 -505 -156 -606 -246 -956 -246 -960 0 -3 -22 -5 -50 -5 l-50 0 0 -132 c0
-73 -3 -210 -7 -305 l-6 -172 -26 -9 c-32 -12 -93 -29 -146 -41 -79 -19 -113
-28 -124 -35 -6 -4 -11 -35 -11 -72 0 -53 4 -67 21 -82 12 -9 26 -22 33 -27 6
-6 36 -28 66 -50 30 -22 57 -42 60 -45 3 -3 32 -26 65 -51 60 -46 82 -56 165
-79 91 -26 115 -33 137 -41 17 -6 26 -2 46 22 74 90 171 179 193 179 30 0 30
-8 1 -40 -12 -14 -53 -63 -91 -109 l-68 -85 123 -30 124 -31 98 74 98 74 92
-7 c314 -24 323 -24 422 4 19 6 52 15 73 21 117 33 107 21 -47 -56 l-113 -58
-182 7 -183 7 -66 -68 -66 -68 32 -12 c31 -11 126 -40 212 -65 22 -6 60 -17
85 -26 25 -8 70 -20 100 -27 50 -12 57 -12 95 7 22 11 59 34 82 49 23 16 44
29 47 29 3 0 31 16 61 36 31 19 60 34 65 32 5 -2 -14 -28 -43 -58 -29 -31 -65
-70 -81 -87 l-28 -32 48 -15 c27 -8 101 -33 164 -55 63 -22 123 -40 133 -41 9
0 25 -4 35 -10 16 -9 252 -88 372 -124 30 -9 64 -21 75 -25 11 -5 43 -16 70
-24 67 -21 146 -48 165 -57 9 -4 29 -10 46 -14 33 -7 32 -6 59 -143 4 -18 10
-33 14 -33 4 0 53 -29 109 -65 55 -36 104 -65 107 -65 3 0 11 -5 18 -10 24
-21 187 -120 197 -120 5 0 10 -4 10 -10 0 -5 4 -10 10 -10 5 0 54 -29 109 -65
55 -36 105 -65 111 -65 5 0 10 -4 10 -10 0 -5 4 -10 10 -10 5 0 48 -25 95 -55
46 -30 89 -55 95 -55 5 0 10 -4 10 -10 0 -5 4 -10 10 -10 5 0 55 -29 110 -65
55 -36 106 -65 113 -65 8 0 24 26 37 58 12 31 33 80 45 107 13 28 67 151 120
275 53 124 110 253 126 288 16 35 29 65 29 67 0 3 11 28 24 57 13 29 49 114
81 188 31 74 77 181 102 238 l46 102 -18 63 c-9 34 -35 118 -57 186 l-40 125
23 19 c13 10 53 44 89 75 35 31 82 73 104 92 23 19 53 46 68 60 18 16 45 68
77 150 26 69 109 280 184 470 105 268 136 359 141 410 4 36 11 107 16 158 20
186 30 281 50 472 11 107 22 209 25 226 5 30 3 32 -52 54 -32 12 -76 30 -98
40 -22 9 -51 21 -65 24 -27 8 -41 13 -112 45 -26 12 -52 21 -58 21 -6 0 -18 4
-28 9 -9 5 -28 13 -42 18 -14 6 -36 15 -50 21 -14 5 -47 18 -75 27 -27 10 -68
26 -90 36 -22 9 -107 43 -190 74 -82 31 -169 66 -192 76 -24 10 -46 19 -51 19
-5 0 -27 9 -50 20 -22 11 -46 20 -51 20 -9 0 -206 76 -296 114 -16 7 -91 37
-165 66 -74 28 -140 54 -145 56 -10 4 -46 -69 -160 -321 -159 -351 -176 -383
-203 -388 -15 -3 -43 -10 -62 -16 -19 -5 -71 -19 -115 -31 -44 -11 -85 -26
-91 -33 -6 -7 -31 -50 -56 -97 -25 -47 -82 -152 -128 -235 -45 -82 -111 -202
-146 -266 l-64 -116 0 -205 c0 -153 -3 -208 -12 -215 -7 -6 -37 -18 -67 -27
-30 -10 -75 -27 -100 -38 -25 -11 -55 -24 -66 -28 -11 -4 -41 -17 -67 -29 -26
-12 -53 -21 -59 -21 -6 0 -26 -7 -45 -16 -18 -9 -38 -14 -44 -12 -6 2 62 51
151 108 90 58 167 110 173 115 6 6 23 16 39 24 l27 14 0 196 0 195 66 205 c36
113 78 244 94 291 15 47 41 128 58 180 217 679 334 1044 339 1056 2 6 -29 23
-69 39 -74 28 -159 65 -168 72 -2 3 -21 55 -41 116 l-36 112 -79 7 c-43 3
-135 11 -204 18 -69 6 -213 17 -320 25 -185 14 -257 20 -535 45 -137 13 -291
26 -418 36 -48 4 -89 10 -91 13 -2 3 3 92 10 196 7 105 13 202 13 218 l1 27
-1062 0 -1062 0 35 -37z m389 -224 c134 -9 294 -22 505 -39 61 -5 171 -14 245
-19 74 -6 194 -15 265 -21 72 -6 172 -14 223 -17 l92 -6 0 -213 c0 -117 -3
-215 -7 -217 -5 -3 -48 -1 -98 4 -49 4 -132 11 -182 15 l-93 7 0 -66 c0 -36
-9 -209 -20 -384 -11 -175 -24 -397 -30 -493 -6 -96 -15 -236 -20 -310 -16
-229 -25 -394 -22 -412 2 -20 -33 -32 -77 -26 l-28 4 -7 -150 c-3 -82 -6 -191
-6 -241 0 -51 -3 -114 -6 -140 l-7 -47 -56 7 c-52 6 -78 12 -206 48 -53 15
-117 35 -150 47 -40 15 -128 40 -141 40 -8 0 -22 4 -32 10 -9 5 -49 19 -89 31
l-71 21 4 132 c3 72 7 164 10 204 l6 73 46 -3 47 -3 6 100 c4 55 7 157 8 227
l1 127 46 -19 c25 -11 50 -20 55 -20 18 0 8 15 -18 28 -16 7 -41 23 -58 37
l-29 24 12 208 c13 220 33 538 53 841 7 100 10 184 7 187 -6 6 -59 12 -173 20
-49 3 -107 8 -127 11 l-38 6 0 199 c0 153 3 199 13 199 6 -1 73 -5 147 -11z
m2000 -506 c30 -8 73 -19 95 -23 22 -5 85 -20 140 -34 55 -14 174 -43 265 -66
91 -22 247 -61 348 -87 l182 -46 0 -32 c0 -17 -6 -76 -14 -131 -8 -54 -16
-119 -18 -144 l-3 -45 40 -5 c33 -4 39 -8 37 -25 -2 -11 -5 -21 -6 -22 -1 -1
-56 11 -122 28 -156 40 -193 49 -229 56 -16 3 -36 10 -43 16 -8 6 -16 6 -21 1
-4 -5 -27 -85 -50 -179 -24 -93 -48 -190 -56 -215 -7 -25 -23 -83 -35 -130
-20 -75 -43 -158 -56 -199 -4 -11 -8 -11 -22 3 -10 9 -24 16 -30 16 -7 0 -12
5 -12 10 0 6 -5 10 -11 10 -6 0 -30 14 -54 30 -24 17 -47 30 -50 30 -18 0
-134 84 -128 93 3 6 1 7 -5 3 -10 -6 -79 27 -134 65 -14 11 -31 19 -37 19 -6
0 -11 4 -11 9 0 5 -13 14 -30 21 -16 7 -30 16 -30 21 0 4 -10 11 -21 14 -36
12 -98 59 -99 75 0 18 16 87 90 395 96 394 96 394 74 410 -11 8 -29 18 -41 21
-17 5 -23 14 -23 35 0 27 2 28 33 22 17 -3 57 -12 87 -20z m2351 -900 c16 -10
29 -20 29 -24 0 -4 12 -10 26 -13 15 -4 52 -24 83 -45 32 -21 85 -53 119 -72
34 -18 62 -37 62 -41 0 -5 6 -8 13 -8 7 0 42 -19 78 -42 35 -23 84 -53 109
-66 25 -13 75 -44 112 -68 37 -24 74 -44 81 -44 8 0 20 -6 26 -14 6 -8 25 -19
42 -26 19 -8 28 -18 25 -27 -3 -8 -2 -11 4 -8 8 5 44 -11 100 -46 49 -31 200
-119 204 -119 3 0 23 -17 46 -37 91 -82 126 -182 118 -335 -3 -51 -9 -100 -12
-109 -4 -9 -24 -21 -45 -28 -35 -10 -42 -18 -67 -77 -27 -65 -28 -66 -61 -59
-19 3 -62 15 -96 27 -68 22 -104 32 -187 53 -30 8 -73 19 -95 25 -22 6 -56 15
-75 19 -19 5 -55 16 -80 25 -25 8 -55 16 -67 16 -12 0 -25 5 -28 10 -3 6 -19
10 -36 10 -28 0 -37 14 -21 35 10 14 59 35 82 35 10 0 26 12 34 28 40 75 60
118 59 132 -9 109 -36 155 -115 199 l-38 20 -20 -21 c-11 -12 -20 -25 -20 -29
0 -5 -15 -34 -34 -66 -18 -32 -54 -96 -78 -143 -25 -47 -69 -127 -97 -179 -28
-52 -51 -97 -51 -101 0 -4 -6 -13 -14 -19 -8 -7 -18 -26 -21 -42 -4 -16 -10
-29 -13 -29 -4 0 -13 -13 -20 -30 -8 -16 -18 -30 -22 -30 -5 0 -67 56 -137
124 -70 68 -141 135 -158 149 l-30 25 27 7 c15 4 46 5 68 3 56 -5 34 11 -31
23 -30 5 -78 14 -108 20 -29 5 -56 7 -59 5 -3 -3 85 -96 194 -206 109 -111
201 -203 203 -205 1 -2 -7 -22 -20 -45 l-24 -41 40 -35 c22 -19 44 -34 48 -34
5 0 15 -6 23 -14 20 -21 100 -31 118 -16 21 16 50 -2 139 -85 41 -38 93 -86
117 -105 24 -19 57 -48 75 -65 18 -16 56 -50 85 -75 80 -68 100 -87 100 -92 0
-15 -98 -30 -179 -27 -50 2 -91 1 -91 -3 0 -4 21 -28 46 -55 26 -26 58 -73 73
-103 23 -49 26 -67 26 -165 l0 -110 -118 -236 -118 -237 -52 32 c-61 37 -120
77 -127 87 -3 5 -12 4 -20 -1 -12 -8 -12 -10 -1 -10 7 0 21 -8 30 -18 9 -10
34 -31 56 -48 22 -16 46 -35 53 -41 7 -7 20 -17 29 -21 13 -8 9 -21 -33 -91
-27 -44 -52 -81 -55 -81 -4 0 -13 16 -21 36 -15 38 -18 38 -51 -8 -11 -16 -22
-13 -137 33 -149 60 -170 69 -192 80 -10 5 -27 9 -38 9 -11 0 -20 5 -20 10 0
6 -9 10 -20 10 -11 0 -20 4 -20 9 0 5 -12 12 -27 16 -16 3 -41 13 -58 20 -16
7 -48 19 -70 25 -22 7 -53 20 -70 29 -16 9 -31 16 -33 17 -2 1 46 108 97 218
25 52 32 59 60 61 58 5 84 49 35 61 -14 4 -23 12 -21 18 19 49 62 136 66 136
4 0 15 -17 26 -37 18 -34 72 -129 100 -175 5 -9 21 -35 34 -57 27 -45 36 -50
45 -25 4 10 -18 63 -54 132 -33 64 -60 121 -60 127 0 6 11 35 25 63 14 29 25
58 25 66 0 8 5 18 10 21 21 13 60 105 60 141 0 48 -30 94 -82 130 -24 15 -48
32 -54 36 -11 8 -124 -150 -124 -173 0 -32 -33 11 -101 132 -42 74 -85 150
-96 169 -11 19 -35 62 -54 95 -19 33 -42 74 -51 90 -9 17 -26 48 -38 70 -12
22 -30 54 -40 70 -11 17 -31 52 -46 79 -26 49 -26 49 -7 87 10 20 22 35 27 32
5 -4 6 -1 2 5 -4 6 8 37 26 69 18 32 58 108 89 168 l56 110 51 -3 c29 -2 52
-1 52 3 0 21 -36 63 -63 74 -18 7 -40 17 -49 22 -10 5 -25 9 -33 9 -18 0 -20
14 -2 28 9 8 19 5 37 -8 39 -30 56 -25 82 28 13 26 43 79 66 119 23 39 42 74
42 77 0 5 39 67 57 91 5 6 26 44 47 85 22 41 49 91 61 110 20 32 38 64 110
195 60 108 76 135 81 135 3 0 19 -8 35 -17z m-2581 -55 c18 -7 28 -18 25 -26
-3 -7 0 -10 5 -7 7 4 269 -161 420 -265 8 -5 35 -22 59 -38 25 -15 107 -69
184 -119 76 -51 140 -93 143 -93 2 0 25 -16 51 -36 27 -21 63 -43 82 -51 l34
-14 -8 -102 c-5 -56 -9 -115 -10 -132 -2 -20 -7 -29 -16 -26 -8 2 -43 10 -79
17 -36 7 -85 18 -110 24 -25 6 -60 14 -77 17 -18 3 -33 8 -33 12 0 8 -138 37
-143 30 -3 -4 -43 -196 -62 -299 -23 -121 -86 -435 -101 -500 -8 -36 -20 -96
-27 -135 l-12 -70 -40 -7 c-22 -4 -78 -8 -125 -8 -100 -2 -191 -14 -170 -23 8
-3 76 -13 150 -22 114 -14 241 -38 495 -95 22 -5 55 -12 73 -15 25 -5 31 -11
28 -23 -12 -38 -65 -260 -71 -299 -5 -29 -12 -43 -22 -43 -13 0 -174 35 -328
72 -22 5 -60 13 -85 18 -25 5 -63 13 -85 19 -22 5 -69 15 -105 21 -36 6 -81
16 -100 20 -19 5 -96 23 -170 40 -74 18 -148 35 -165 40 -16 4 -47 11 -67 15
-32 5 -38 10 -38 30 0 14 -4 25 -10 25 -14 0 -12 41 7 142 13 70 20 88 34 88
12 0 20 11 24 33 3 17 15 70 25 117 10 47 30 144 45 215 14 72 37 182 50 245
13 63 36 171 50 240 14 69 32 157 40 195 36 171 65 314 74 360 36 189 83 404
96 443 4 11 8 11 20 -1 8 -8 28 -21 45 -29z m698 -387 c9 -6 83 -31 163 -56
81 -26 152 -50 158 -54 9 -6 9 -19 0 -57 -7 -27 -13 -51 -15 -53 -1 -2 -39 22
-84 53 -45 31 -86 56 -91 56 -5 0 -9 5 -9 10 0 6 -4 10 -10 10 -5 0 -33 18
-62 40 -29 22 -59 40 -65 40 -7 0 -13 5 -13 10 0 12 6 13 28 1z m2422 -790
c25 -5 81 -19 125 -31 82 -22 127 -33 193 -49 20 -5 57 -15 82 -24 39 -14 95
-27 192 -44 40 -7 51 -25 37 -57 -7 -15 -18 -25 -25 -22 -7 3 -11 0 -8 -7 4
-12 -11 -44 -139 -291 -81 -155 -140 -228 -207 -253 -28 -10 -34 -8 -78 26
-26 21 -65 55 -88 77 -22 21 -57 53 -77 69 -20 17 -35 36 -32 43 3 7 0 10 -5
7 -9 -6 -81 50 -145 110 -11 11 -39 37 -63 57 l-42 38 29 54 c16 29 57 107 91
172 73 139 78 146 99 139 9 -2 36 -9 61 -14z m-4746 -62 c43 -10 92 -19 107
-19 16 0 29 -4 29 -9 0 -5 21 -11 48 -15 91 -11 190 -31 198 -38 4 -5 18 -8
32 -8 24 0 62 -9 145 -32 l37 -11 0 -159 0 -159 -112 4 c-410 16 -612 27 -619
34 -4 4 -9 105 -11 224 l-3 217 35 -5 c19 -3 70 -14 114 -24z m3324 -66 c30
-60 104 -197 112 -208 8 -11 53 -92 100 -180 41 -79 92 -169 105 -186 6 -8 28
-48 50 -90 l39 -76 -23 -54 c-13 -30 -35 -79 -48 -109 -14 -30 -32 -71 -40
-90 -9 -19 -26 -57 -38 -85 -43 -93 -82 -180 -105 -232 -12 -29 -24 -53 -25
-53 -4 0 -74 29 -122 51 -23 10 -46 19 -52 19 -10 0 -101 40 -186 81 -22 10
-48 19 -57 19 -10 0 -18 4 -18 9 0 5 -13 11 -29 14 -15 3 -58 20 -95 36 -37
17 -68 31 -70 31 -17 0 -77 33 -69 38 5 4 34 57 62 117 61 128 61 128 89 180
12 22 78 157 148 300 69 143 130 262 135 263 5 2 9 10 9 17 0 15 98 225 105
225 2 0 13 -17 23 -37z m-503 -1163 c35 -16 67 -30 70 -30 3 0 44 -18 91 -40
47 -22 92 -40 100 -40 8 0 14 -4 14 -10 0 -5 18 -13 40 -16 22 -4 40 -10 40
-15 0 -4 16 -13 37 -20 33 -11 133 -56 175 -79 10 -6 24 -10 32 -10 30 0 27
-23 -14 -108 -24 -48 -49 -102 -57 -120 l-14 -33 -42 29 c-23 16 -76 49 -117
73 -41 24 -95 57 -120 75 -25 17 -72 46 -105 64 -33 18 -97 57 -142 86 -46 30
-88 54 -94 54 -7 0 -9 13 -5 38 7 39 37 132 43 132 2 0 33 -13 68 -30z m920
-420 c-3 -6 1 -7 10 -4 9 4 26 2 38 -4 12 -5 38 -15 57 -22 19 -7 54 -21 77
-31 24 -11 49 -19 57 -19 8 0 18 -4 21 -10 3 -5 15 -10 27 -10 11 0 34 -6 51
-14 18 -8 70 -28 117 -46 47 -17 94 -36 105 -41 11 -4 46 -17 78 -27 32 -11
63 -24 68 -29 9 -9 -12 -58 -127 -297 -13 -28 -24 -45 -24 -38 0 7 -5 12 -11
12 -6 0 -30 13 -53 29 -24 17 -55 33 -69 37 -15 3 -27 10 -27 14 0 4 -8 10
-17 14 -19 6 -42 19 -128 72 -27 17 -58 33 -68 37 -15 6 -137 75 -187 107 -8
6 -32 19 -52 30 -20 11 -39 23 -41 27 -3 5 10 40 28 78 17 39 38 87 45 108 8
20 18 37 23 37 4 0 5 -4 2 -10z"/>
<path d="M14210 11029 c0 -5 5 -7 10 -4 6 3 10 8 10 11 0 2 -4 4 -10 4 -5 0
-10 -5 -10 -11z"/>
<path d="M13850 9226 c0 -2 7 -7 16 -10 8 -3 12 -2 9 4 -6 10 -25 14 -25 6z"/>
<path d="M10968 9843 c7 -3 16 -2 19 1 4 3 -2 6 -13 5 -11 0 -14 -3 -6 -6z"/>
<path d="M11710 9690 c0 -5 5 -10 11 -10 5 0 7 5 4 10 -3 6 -8 10 -11 10 -2 0
-4 -4 -4 -10z"/>
<path d="M12211 9514 c0 -11 3 -14 6 -6 3 7 2 16 -1 19 -3 4 -6 -2 -5 -13z"/>
<path d="M8860 13319 l0 -404 70 -130 c39 -71 70 -133 70 -137 0 -4 3 -9 8
-12 4 -2 0 48 -10 112 -23 161 -22 264 6 709 l4 61 -74 102 -74 103 0 -404z"/>
<path d="M6015 13640 c-66 -21 -187 -60 -268 -86 -81 -25 -145 -49 -143 -52 5
-5 102 4 308 29 93 11 82 14 150 -43 12 -10 24 -18 27 -18 3 0 20 -12 36 -28
58 -52 119 -96 113 -81 -3 8 -20 61 -38 119 -18 58 -40 126 -49 151 l-16 47
-120 -38z"/>
<path d="M2775 13640 c4 -17 15 -58 24 -93 l18 -62 81 -12 c45 -6 86 -15 93
-19 15 -9 8 19 -32 131 l-31 85 -80 0 -80 0 7 -30z"/>
<path d="M12060 13577 c0 -8 138 -249 148 -259 5 -5 85 -14 178 -19 93 -5 191
-13 217 -17 l49 -7 54 -126 55 -125 47 -12 c62 -17 182 -52 207 -61 18 -7 24
8 77 173 32 100 58 182 58 183 0 1 -51 14 -160 39 -36 8 -82 19 -102 24 -21 6
-55 14 -75 19 -21 5 -92 24 -158 41 -66 18 -149 38 -185 46 -77 18 -100 23
-251 62 -64 16 -126 33 -137 37 -12 3 -22 4 -22 2z"/>
<path d="M3605 13511 c-33 -15 -71 -32 -84 -37 -22 -9 -17 -14 71 -72 52 -34
99 -62 106 -62 7 0 12 -4 12 -9 0 -5 8 -11 18 -14 9 -3 32 -16 51 -28 l34 -23
-38 69 c-21 39 -50 90 -64 115 -14 25 -30 55 -36 67 l-10 21 -60 -27z"/>
<path d="M4660 13379 c-102 -5 -292 -13 -423 -18 -131 -5 -240 -11 -243 -14
-4 -3 6 -48 20 -99 14 -51 49 -176 77 -278 76 -275 86 -311 90 -314 2 -2 45
-18 94 -35 50 -18 99 -36 110 -40 11 -5 33 -14 49 -20 16 -7 30 -10 33 -8 2 3
-16 159 -41 348 -25 189 -43 345 -42 346 2 2 38 8 82 14 43 6 109 15 147 20
37 5 97 13 135 18 37 5 103 14 147 20 129 17 135 19 135 47 0 24 -1 24 -92 22
-51 -1 -176 -5 -278 -9z"/>
<path d="M6469 13278 c-30 -18 -75 -44 -102 -57 -26 -13 -47 -29 -47 -35 -1
-19 124 -885 127 -883 5 5 123 810 123 840 0 36 -31 167 -40 167 -3 0 -31 -15
-61 -32z"/>
<path d="M3447 13263 c11 -10 35 -29 53 -43 41 -32 69 -56 100 -83 14 -13 59
-49 100 -82 41 -33 80 -64 86 -70 6 -5 23 -19 38 -30 15 -11 37 -28 49 -38 12
-11 39 -33 60 -50 22 -18 48 -40 59 -49 12 -10 22 -18 24 -18 2 0 -18 57 -43
128 -25 70 -54 152 -64 183 l-20 56 -77 17 c-42 10 -84 20 -92 23 -27 9 -244
65 -270 70 l-25 5 22 -19z"/>
<path d="M13189 13083 c-6 -15 -19 -53 -29 -83 -10 -30 -72 -215 -139 -410
-66 -195 -121 -356 -121 -357 0 -1 21 0 48 2 26 2 109 10 185 16 l137 12 11
41 c47 187 98 346 110 346 4 0 34 -12 66 -26 32 -14 74 -33 93 -41 19 -8 44
-19 55 -24 11 -5 45 -18 75 -30 30 -11 69 -26 85 -34 17 -7 48 -20 70 -30 22
-9 53 -23 69 -31 16 -8 33 -14 38 -14 5 0 30 -9 56 -21 26 -12 63 -28 82 -36
19 -8 43 -19 53 -24 33 -18 17 0 -50 52 -38 30 -70 56 -73 59 -3 3 -39 33 -80
66 -41 32 -84 67 -95 77 -11 10 -33 28 -48 40 -36 28 -224 182 -257 211 -14
12 -59 48 -100 81 -41 32 -77 62 -80 65 -3 3 -38 32 -78 64 l-72 57 -11 -28z"/>
<path d="M6660 13082 c0 -4 -13 -13 -30 -19 -16 -6 -30 -18 -30 -27 0 -21 -89
-844 -95 -878 -4 -25 -1 -28 33 -37 56 -15 175 -41 277 -61 33 -7 73 -16 89
-21 16 -5 31 -7 33 -5 3 3 -90 75 -234 180 -50 37 -48 19 -34 351 24 540 24
525 7 525 -9 0 -16 -4 -16 -8z"/>
<path d="M10880 13003 c0 -10 -12 -115 -25 -233 -14 -118 -28 -243 -32 -277
-7 -70 1 -65 -128 -81 l-60 -7 -16 -95 c-10 -52 -29 -162 -44 -243 -14 -82
-25 -151 -22 -153 2 -2 39 9 83 25 43 16 102 37 129 47 28 10 51 19 53 20 1 0
29 80 61 176 l59 175 -8 159 c-5 88 -11 227 -15 309 -3 83 -8 160 -11 173 -5
26 -24 30 -24 5z"/>
<path d="M13710 12861 c0 -7 56 -61 239 -231 15 -14 73 -68 130 -120 57 -52
118 -108 135 -125 34 -33 60 -47 121 -66 22 -7 45 -16 50 -20 6 -4 26 -10 45
-14 19 -4 40 -10 45 -14 6 -4 28 -13 50 -20 38 -12 55 -18 108 -41 12 -5 64
-23 116 -40 108 -36 158 -54 244 -89 15 -6 31 -11 35 -11 8 0 -40 39 -49 40
-4 0 -55 30 -115 66 -60 37 -125 75 -144 86 -19 11 -72 44 -118 74 -45 30 -85
54 -87 54 -2 0 -53 30 -112 66 -59 37 -121 74 -137 83 -17 9 -39 24 -50 34
-11 9 -24 17 -28 17 -5 0 -35 17 -66 38 -31 21 -65 41 -75 45 -9 4 -44 25 -77
47 -32 22 -61 40 -64 40 -3 0 -44 25 -92 55 -88 55 -104 62 -104 46z"/>
<path d="M9032 12587 c-39 -46 -77 -91 -84 -98 -8 -8 -27 -31 -42 -52 l-29
-37 26 -208 c15 -114 38 -301 52 -417 43 -353 57 -470 59 -472 2 -2 25 84 121
447 13 47 37 139 55 204 l31 119 -52 291 c-28 160 -55 295 -59 299 -4 4 -39
-30 -78 -76z"/>
<path d="M4192 12580 c3 -8 36 -130 73 -270 36 -140 76 -289 87 -330 11 -41
33 -127 49 -190 17 -63 37 -139 45 -168 l16 -53 47 79 c27 43 65 108 85 145
l37 66 -38 3 -38 3 -7 60 c-4 33 -19 156 -33 274 -15 118 -28 218 -31 222 -4
8 -66 43 -189 109 -44 24 -86 48 -94 54 -12 9 -14 8 -9 -4z"/>
<path d="M15350 12471 l0 -79 57 -51 c31 -28 59 -51 63 -51 4 0 19 31 34 70
15 38 32 72 37 76 5 3 9 13 9 23 0 13 -14 23 -47 33 -27 9 -72 25 -100 37
l-53 21 0 -79z"/>
<path d="M13155 12198 c-27 -10 -72 -26 -100 -34 -27 -9 -57 -18 -65 -22 -8
-3 -55 -19 -104 -36 l-90 -31 -141 -422 c-78 -233 -140 -423 -139 -423 2 0 29
46 60 103 31 56 65 113 74 127 10 14 35 57 56 95 98 177 149 252 179 265 16 6
48 20 70 30 22 9 67 27 101 40 l61 22 47 150 c26 82 46 151 44 152 -2 2 -25
-6 -53 -16z"/>
<path d="M420 12145 c-36 -8 -90 -19 -120 -25 -30 -7 -73 -16 -95 -20 -39 -9
-108 -23 -170 -35 -29 -6 -26 -9 128 -161 87 -85 161 -154 165 -154 12 0 174
-20 252 -30 41 -5 111 -14 155 -19 44 -6 96 -13 115 -16 30 -5 26 -1 -27 25
-82 42 -142 96 -196 178 -50 75 -78 131 -105 211 -10 30 -23 56 -28 57 -5 1
-38 -4 -74 -11z"/>
<path d="M15312 12095 l3 -59 95 -24 c52 -13 104 -26 115 -28 16 -4 28 8 58
60 21 36 38 69 37 73 0 5 -32 11 -72 14 -40 4 -110 10 -156 14 l-83 8 3 -58z"/>
<path d="M6460 12023 c0 -4 91 -212 175 -398 12 -27 40 -90 61 -140 36 -85 39
-88 45 -58 3 17 9 85 13 150 8 124 13 142 54 186 l26 27 -47 0 c-79 0 -61 25
61 81 180 84 202 96 195 102 -3 4 -31 7 -62 7 -30 0 -91 4 -135 10 -45 5 -135
15 -201 20 -66 6 -135 13 -152 15 -18 2 -33 1 -33 -2z"/>
<path d="M10755 11861 c-27 -11 -88 -33 -135 -51 -47 -18 -93 -34 -103 -37
-21 -7 -13 30 -92 -433 -36 -212 -75 -437 -86 -500 -10 -63 -21 -125 -24 -137
-5 -22 -3 -23 80 -23 47 0 85 2 85 5 0 5 118 436 145 530 18 62 90 325 116
420 10 39 29 109 43 158 13 48 23 87 23 87 -1 -1 -24 -9 -52 -19z"/>
<path d="M9156 11632 c-33 -114 -84 -290 -113 -392 l-55 -185 -24 -300 c-13
-165 -24 -316 -24 -336 0 -31 17 -58 112 -182 62 -80 114 -144 116 -142 3 2
-1 46 -7 97 -6 51 -22 185 -36 298 -14 113 -33 280 -44 372 l-19 168 79 201
79 201 -2 203 -3 203 -59 -206z"/>
<path d="M15378 11358 l-66 -332 49 -85 c27 -48 52 -92 56 -100 9 -13 32 21
219 312 38 59 80 125 94 147 14 21 54 85 89 141 35 56 72 110 83 121 24 24 14
34 -42 44 -19 3 -48 9 -65 14 -16 5 -52 11 -80 15 -27 3 -66 10 -85 15 -51 13
-120 28 -156 35 l-30 6 -66 -333z"/>
<path d="M15250 10698 c-12 -29 -30 -71 -40 -93 -10 -22 -61 -143 -115 -270
-53 -126 -107 -252 -120 -280 -30 -65 -75 -173 -75 -179 0 -3 17 -12 38 -22
20 -9 47 -21 59 -27 13 -6 24 -8 26 -6 7 9 144 253 222 394 142 257 186 346
181 362 -4 10 -39 53 -80 96 l-73 78 -23 -53z"/>
<path d="M10315 10647 c-11 -35 -105 -430 -103 -431 2 -1 36 -28 76 -60 40
-32 75 -56 77 -54 3 3 35 444 35 489 0 19 -9 30 -40 47 -29 15 -42 18 -45 9z"/>
<path d="M10084 10074 c-54 -58 -102 -112 -107 -119 -9 -16 84 -39 148 -37 38
1 241 55 253 67 3 3 -12 21 -34 41 -21 20 -66 62 -100 95 l-61 58 -99 -105z"/>
<path d="M7255 10123 c-3 -21 -20 -93 -36 -159 -34 -143 -35 -148 -11 -139 9
4 42 11 72 17 77 14 131 25 240 48 52 11 122 25 155 31 33 5 94 17 135 26 41
8 94 19 118 23 23 4 44 9 46 11 6 6 74 174 72 176 -1 1 -20 -2 -41 -7 -22 -4
-76 -13 -120 -19 -44 -6 -118 -16 -165 -22 -89 -12 -211 -8 -295 10 -107 23
-131 29 -146 35 -13 6 -18 -1 -24 -31z"/>
<path d="M9136 9996 l-147 -73 63 -12 c35 -7 86 -16 113 -21 28 -5 73 -14 100
-19 28 -5 79 -15 115 -21 36 -6 88 -15 115 -20 93 -17 110 -20 205 -36 52 -8
118 -19 145 -24 28 -5 74 -13 103 -18 l52 -9 0 68 0 69 -180 0 -180 0 -73 38
c-39 20 -73 40 -75 45 -2 4 -8 7 -12 7 -5 0 -33 14 -62 32 -53 31 -123 68
-131 68 -2 0 -70 -33 -151 -74z"/>
<path d="M8327 10006 c-86 -29 -159 -55 -160 -57 -2 -2 -11 -20 -19 -39 -9
-19 -34 -75 -57 -123 -23 -49 -41 -91 -41 -93 0 -2 198 -4 440 -4 l440 0 0 69
c0 43 -5 72 -13 79 -12 10 -106 43 -222 77 -33 9 -85 25 -115 35 l-55 17 -3
46 c-2 37 -7 47 -20 47 -9 -1 -88 -25 -175 -54z"/>
<path d="M7935 9838 c-22 -4 -62 -13 -90 -18 -27 -6 -75 -15 -105 -21 -30 -5
-89 -17 -130 -25 -41 -9 -115 -25 -165 -35 -49 -11 -114 -24 -144 -29 -90 -16
-85 -25 25 -44 44 -7 117 -21 163 -31 85 -18 129 -15 261 16 19 4 67 11 106
15 40 3 77 9 83 13 9 6 45 162 38 166 -1 1 -20 -2 -42 -7z"/>
<path d="M14870 9808 c-19 -17 -68 -62 -107 -101 l-73 -69 1 -127 0 -126 19
25 c11 14 74 103 140 199 l121 174 -27 28 c-15 16 -30 29 -33 29 -3 0 -22 -15
-41 -32z"/>
<path d="M9070 9743 l0 -79 98 -23 c53 -13 111 -27 127 -31 17 -5 48 -11 70
-15 34 -6 56 -24 169 -141 l129 -134 170 0 169 0 -5 23 c-3 12 -18 90 -33 172
-15 83 -30 153 -33 157 -4 4 -38 12 -76 19 -39 6 -92 15 -120 19 -27 5 -77 14
-110 19 -33 6 -87 15 -120 21 -33 6 -85 15 -115 20 -95 14 -243 39 -282 46
l-38 7 0 -80z"/>
<path d="M6858 9635 c-4 -4 -52 -15 -153 -35 -22 -4 -87 -18 -145 -30 -58 -12
-139 -28 -180 -36 -41 -7 -95 -18 -120 -24 -25 -5 -69 -14 -97 -19 -85 -16
-90 -22 -43 -56 23 -17 57 -43 78 -58 40 -31 55 -31 187 3 39 10 90 21 115 25
25 4 78 16 117 26 40 10 81 19 90 19 16 1 203 171 203 185 0 6 -45 7 -52 0z"/>
<path d="M8000 9619 c-69 -23 -223 -68 -345 -101 -22 -6 -46 -12 -52 -14 -8
-2 -13 -22 -13 -55 l0 -52 282 8 c155 4 290 10 299 14 14 5 9 21 -35 113 -32
68 -57 107 -66 106 -8 0 -40 -9 -70 -19z"/>
<path d="M10104 9599 c3 -24 11 -102 16 -174 6 -71 14 -133 18 -137 4 -3 30
-11 57 -16 28 -6 140 -33 250 -61 110 -29 229 -58 265 -66 36 -8 82 -19 102
-24 l37 -9 -28 52 c-16 28 -45 81 -65 118 -30 56 -41 67 -69 73 -59 11 -121
25 -188 40 -36 8 -74 15 -85 15 -22 0 -71 28 -111 64 -27 24 -68 58 -88 73 -5
5 -34 28 -63 52 l-54 44 6 -44z"/>
<path d="M7029 9539 c-35 -39 -69 -79 -76 -88 -12 -18 -74 -34 -168 -46 -27
-3 -75 -10 -105 -16 -73 -14 -141 -26 -222 -41 -38 -6 -68 -14 -68 -17 0 -3
13 -21 28 -39 l27 -33 100 11 c55 5 127 14 160 20 33 5 98 14 145 20 47 6 112
15 145 20 33 5 96 14 140 20 44 6 107 15 140 20 33 5 86 12 118 15 l58 7 -3
75 c-3 88 4 82 -128 103 -41 7 -88 16 -105 20 -16 5 -51 11 -76 15 l-46 6 -64
-72z"/>
<path d="M8850 9557 c0 -48 1 -49 90 -76 19 -6 76 -24 125 -40 50 -16 106 -32
125 -36 19 -3 60 -15 90 -25 30 -10 80 -26 110 -35 30 -9 69 -21 85 -26 l30
-9 -31 28 c-17 15 -49 41 -70 57 -21 17 -65 53 -99 81 -80 68 -92 73 -183 84
-87 11 -179 24 -234 35 l-38 7 0 -45z"/>
<path d="M8330 9420 c89 -178 74 -165 210 -175 47 -3 135 -10 195 -15 244 -22
344 -30 438 -36 l97 -7 0 47 c0 34 -4 46 -15 46 -8 0 -23 4 -33 9 -9 5 -66 28
-127 51 -60 23 -119 45 -130 50 -11 4 -54 20 -95 35 -41 14 -86 31 -100 37
-35 15 -62 25 -82 32 -13 4 -18 16 -18 46 l0 40 -210 0 -210 0 80 -160z"/>
<path d="M1557 9514 c3 -9 54 -107 113 -218 58 -110 146 -277 194 -371 201
-387 229 -440 237 -450 5 -5 9 54 9 136 l0 146 -56 189 c-73 249 -78 267 -100
346 -20 74 0 59 -189 141 -87 38 -195 87 -207 94 -4 2 -5 -4 -1 -13z"/>
<path d="M5928 9465 c-4 -5 -38 -12 -163 -36 -27 -5 -84 -16 -125 -24 -41 -8
-102 -20 -135 -26 -33 -5 -61 -12 -64 -14 -2 -3 35 -44 82 -91 l86 -87 98 7
c54 3 148 10 208 16 61 5 160 14 220 19 61 6 115 10 120 11 10 0 -14 23 -120
115 -32 28 -75 65 -95 83 -27 23 -47 32 -72 32 -19 0 -37 -2 -40 -5z"/>
<path d="M5195 9300 c-22 -11 -69 -32 -105 -48 -36 -17 -96 -44 -135 -62 -38
-18 -81 -36 -95 -42 -74 -28 -79 -32 -108 -103 -16 -38 -33 -80 -36 -93 -8
-24 -11 -24 69 9 11 4 70 24 130 44 61 20 119 40 130 45 11 5 54 20 95 34 41
13 93 31 115 39 22 8 65 22 95 31 30 9 64 21 75 25 11 5 29 12 39 15 16 6 13
10 -20 28 -108 58 -190 98 -199 97 -5 0 -28 -9 -50 -19z"/>
<path d="M10983 9247 c3 -12 11 -54 18 -94 14 -81 14 -81 154 -128 58 -20 78
-27 120 -45 17 -7 39 -16 50 -20 132 -51 184 -70 208 -76 15 -3 30 -10 33 -15
3 -5 55 -9 115 -9 l110 0 -3 71 -3 71 -205 68 c-113 37 -245 80 -295 94 -49
15 -99 31 -110 36 -11 5 -60 22 -108 39 -88 29 -89 29 -84 8z"/>
<path d="M12540 8705 c0 -4 26 -55 57 -114 61 -114 133 -224 167 -253 24 -21
107 -62 291 -143 90 -39 136 -60 195 -87 36 -16 74 -33 85 -38 11 -4 61 -27
110 -50 50 -23 99 -46 110 -51 46 -19 126 -54 213 -95 52 -24 96 -44 98 -44 3
0 25 -9 50 -20 119 -55 36 12 -273 216 -186 124 -346 231 -356 239 -9 8 -21
15 -25 15 -4 0 -23 12 -42 28 -19 15 -87 61 -150 102 -63 41 -120 80 -126 86
-7 6 -39 28 -72 50 -36 23 -69 54 -81 75 -19 34 -27 38 -108 59 -116 29 -143
34 -143 25z"/>
</g>
</svg>
